<svg xmlns="http://www.w3.org/2000/svg" xmlns:xlink="http://www.w3.org/1999/xlink" width="500" zoomAndPan="magnify" viewBox="0 0 375 374.999991" height="500" preserveAspectRatio="xMidYMid meet" version="1.0"><defs><clipPath id="id1"><path d="M 50.945312 260 L 122.855469 260 L 122.855469 331.800781 L 50.945312 331.800781 Z M 50.945312 260 " clip-rule="nonzero"/></clipPath><clipPath id="id2"><path d="M 158 208 L 230 208 L 230 331.800781 L 158 331.800781 Z M 158 208 " clip-rule="nonzero"/></clipPath><clipPath id="id3"><path d="M 266 131.613281 L 337.328125 131.613281 L 337.328125 331.800781 L 266 331.800781 Z M 266 131.613281 " clip-rule="nonzero"/></clipPath><clipPath id="id4"><path d="M 50.136719 31 L 308 31 L 308 238 L 50.136719 238 Z M 50.136719 31 " clip-rule="nonzero"/></clipPath></defs><g clip-path="url(#id1)"><path fill="#227bc0" d="M 72.53125 272.457031 C 67.261719 272.457031 62.96875 276.753906 62.96875 282.027344 L 62.96875 310.203125 C 62.96875 315.480469 67.261719 319.78125 72.53125 319.78125 L 100.679688 319.78125 C 105.945312 319.78125 110.242188 315.480469 110.242188 310.203125 L 110.242188 282.027344 C 110.242188 276.753906 105.945312 272.457031 100.679688 272.457031 Z M 100.679688 331.808594 L 72.53125 331.808594 C 60.628906 331.808594 50.949219 322.117188 50.949219 310.203125 L 50.949219 282.027344 C 50.949219 270.117188 60.628906 260.421875 72.53125 260.421875 L 100.679688 260.421875 C 112.578125 260.421875 122.257812 270.117188 122.257812 282.027344 L 122.257812 310.203125 C 122.257812 322.117188 112.578125 331.808594 100.679688 331.808594 " fill-opacity="1" fill-rule="nonzero"/></g><g clip-path="url(#id2)"><path fill="#227bc0" d="M 180.074219 220.136719 C 174.789062 220.136719 170.5 224.4375 170.5 229.710938 L 170.5 310.203125 C 170.5 315.480469 174.789062 319.78125 180.074219 319.78125 L 208.203125 319.78125 C 213.488281 319.78125 217.785156 315.480469 217.785156 310.203125 L 217.785156 229.710938 C 217.785156 224.4375 213.488281 220.136719 208.203125 220.136719 Z M 208.203125 331.808594 L 180.074219 331.808594 C 168.160156 331.808594 158.476562 322.117188 158.476562 310.203125 L 158.476562 229.710938 C 158.476562 217.800781 168.160156 208.105469 180.074219 208.105469 L 208.203125 208.105469 C 220.117188 208.105469 229.800781 217.800781 229.800781 229.710938 L 229.800781 310.203125 C 229.800781 322.117188 220.117188 331.808594 208.203125 331.808594 " fill-opacity="1" fill-rule="nonzero"/></g><g clip-path="url(#id3)"><path fill="#227bc0" d="M 287.601562 143.675781 C 282.332031 143.675781 278.039062 147.976562 278.039062 153.246094 L 278.039062 310.203125 C 278.039062 315.480469 282.332031 319.78125 287.601562 319.78125 L 315.746094 319.78125 C 321.015625 319.78125 325.3125 315.480469 325.3125 310.203125 L 325.3125 153.246094 C 325.3125 147.976562 321.015625 143.675781 315.746094 143.675781 Z M 315.746094 331.808594 L 287.601562 331.808594 C 275.699219 331.808594 266.019531 322.117188 266.019531 310.203125 L 266.019531 153.246094 C 266.019531 141.332031 275.699219 131.640625 287.601562 131.640625 L 315.746094 131.640625 C 327.644531 131.640625 337.332031 141.332031 337.332031 153.246094 L 337.332031 310.203125 C 337.332031 322.117188 327.644531 331.808594 315.746094 331.808594 " fill-opacity="1" fill-rule="nonzero"/></g><g clip-path="url(#id4)"><path fill="#227bc0" d="M 56.957031 237.734375 C 55.195312 237.734375 53.4375 236.957031 52.25 235.46875 C 50.1875 232.859375 50.621094 229.078125 53.214844 227.007812 L 297.933594 32.339844 C 300.546875 30.296875 304.328125 30.707031 306.378906 33.304688 C 308.445312 35.914062 308.011719 39.695312 305.421875 41.765625 L 60.703125 236.433594 C 59.585938 237.3125 58.269531 237.734375 56.957031 237.734375 " fill-opacity="1" fill-rule="nonzero"/></g><path fill="#227bc0" d="M 301.675781 79.351562 C 298.351562 79.351562 295.664062 76.65625 295.664062 73.332031 L 295.664062 43.066406 L 265.429688 43.066406 C 262.113281 43.066406 259.425781 40.375 259.425781 37.054688 C 259.425781 33.726562 262.113281 31.035156 265.429688 31.035156 L 301.675781 31.035156 C 304.996094 31.035156 307.679688 33.726562 307.679688 37.054688 L 307.679688 73.332031 C 307.679688 76.65625 304.996094 79.351562 301.675781 79.351562 " fill-opacity="1" fill-rule="nonzero"/></svg>