<svg xmlns="http://www.w3.org/2000/svg" xmlns:xlink="http://www.w3.org/1999/xlink" width="500" zoomAndPan="magnify" viewBox="0 0 375 374.999991" height="500" preserveAspectRatio="xMidYMid meet" version="1.0"><defs><clipPath id="id1"><path d="M 34.347656 37.5 L 357.597656 37.5 L 357.597656 363 L 34.347656 363 Z M 34.347656 37.5 " clip-rule="nonzero"/></clipPath><clipPath id="id2"><path d="M 31.101562 37.5 L 354 37.5 L 354 363 L 31.101562 363 Z M 31.101562 37.5 " clip-rule="nonzero"/></clipPath></defs><g clip-path="url(#id1)"><path fill="#8ab340" d="M 346.320312 159.726562 C 339.679688 158.789062 333.453125 163.28125 332.175781 169.792969 C 329.75 169.867188 327.40625 170.660156 325.386719 172.121094 C 322.636719 174.117188 320.867188 177.070312 320.414062 180.445312 C 318.21875 196.871094 313.660156 226.347656 307.78125 239.167969 C 302.976562 249.65625 291.207031 259.914062 282.179688 266.675781 C 281.304688 267.335938 280.519531 266.910156 280.226562 266.703125 C 279.933594 266.496094 279.292969 265.898438 279.621094 264.871094 L 288.097656 238.464844 C 307.660156 216.363281 318.433594 187.960938 318.433594 158.410156 C 318.433594 152.460938 317.984375 146.617188 317.148438 140.894531 C 317.148438 140.894531 317.148438 140.890625 317.148438 140.886719 C 308.632812 82.507812 258.234375 37.523438 197.507812 37.523438 C 136.75 37.523438 86.332031 82.554688 77.851562 140.980469 C 77.835938 141.039062 77.832031 141.09375 77.820312 141.152344 C 77.800781 141.246094 77.800781 141.335938 77.792969 141.425781 C 77.007812 146.976562 76.578125 152.644531 76.578125 158.40625 C 76.578125 185.355469 85.25 210.824219 101.65625 232.105469 L 112.171875 264.875 C 112.503906 265.902344 111.859375 266.5 111.570312 266.703125 C 111.277344 266.917969 110.496094 267.339844 109.617188 266.675781 C 100.589844 259.917969 88.820312 249.65625 84.015625 239.171875 C 78.136719 226.347656 73.578125 196.875 71.382812 180.445312 C 70.929688 177.074219 69.164062 174.121094 66.410156 172.125 C 64.390625 170.664062 62.046875 169.867188 59.621094 169.796875 C 58.347656 163.285156 52.089844 158.789062 45.476562 159.726562 C 38.996094 160.636719 34.328125 166.246094 34.621094 172.78125 C 35.632812 195.277344 38.605469 249.242188 44.308594 264.414062 C 47.628906 273.25 55.777344 284.21875 65.214844 296.921875 C 74.71875 309.710938 85.488281 324.203125 92.164062 338.144531 C 93.671875 341.292969 94.472656 344.867188 94.472656 348.480469 L 94.472656 360.394531 C 94.472656 361.082031 94.742188 361.738281 95.226562 362.222656 C 95.714844 362.703125 96.371094 362.976562 97.050781 362.976562 C 97.050781 362.976562 97.050781 362.976562 97.054688 362.976562 L 164.828125 362.933594 C 165.523438 362.933594 166.1875 362.652344 166.675781 362.152344 C 167.160156 361.660156 167.421875 360.988281 167.410156 360.292969 C 167.371094 358.453125 166.441406 314.929688 163.183594 293.117188 C 162.460938 288.289062 160.109375 280.929688 156.832031 272.277344 C 169.851562 276.929688 183.503906 279.285156 197.503906 279.285156 C 207.414062 279.285156 217.167969 278.074219 226.652344 275.726562 C 226.691406 275.710938 226.730469 275.710938 226.769531 275.695312 C 229.363281 275.050781 231.941406 274.34375 234.488281 273.527344 C 231.457031 281.632812 229.292969 288.523438 228.609375 293.121094 C 225.351562 314.929688 224.417969 358.457031 224.382812 360.296875 C 224.367188 360.992188 224.632812 361.660156 225.117188 362.15625 C 225.601562 362.652344 226.265625 362.933594 226.960938 362.933594 L 294.742188 362.976562 C 295.429688 362.976562 296.085938 362.707031 296.570312 362.222656 C 297.054688 361.734375 297.328125 361.082031 297.328125 360.394531 L 297.328125 348.476562 C 297.328125 344.863281 298.125 341.285156 299.636719 338.136719 C 306.3125 324.199219 317.082031 309.703125 326.585938 296.914062 C 336.019531 284.214844 344.167969 273.246094 347.492188 264.410156 C 353.195312 249.238281 356.167969 195.273438 357.179688 172.773438 C 357.46875 166.246094 352.800781 160.632812 346.320312 159.726562 Z M 292.648438 224.292969 L 295.652344 214.929688 C 296.96875 210.835938 296.605469 206.476562 294.632812 202.65625 C 292.660156 198.835938 289.316406 196.023438 285.222656 194.71875 C 277.671875 192.320312 269.367188 195.878906 265.914062 203 C 260.082031 215.003906 252.386719 231.210938 245.480469 246.898438 C 242.367188 246.8125 235.1875 245.992188 233.683594 240.238281 C 232.722656 236.566406 233.636719 233.214844 234.519531 229.976562 C 235.675781 225.738281 236.984375 220.941406 233.140625 216.480469 C 231.125 214.136719 226.527344 212.304688 220.167969 209.765625 C 207.398438 204.671875 189.902344 197.691406 188.429688 184.230469 C 186.175781 163.609375 198.96875 148.480469 208.769531 147.125 C 213.703125 146.441406 225.855469 148.75 237.609375 150.976562 C 252.476562 153.796875 266.523438 156.472656 273.363281 155.070312 C 280.4375 153.628906 286.179688 149.050781 291.242188 145.007812 C 295.011719 141.996094 298.574219 139.148438 301.421875 138.804688 C 306.5 138.195312 310.613281 141.015625 312.109375 142.210938 C 312.855469 147.507812 313.265625 152.910156 313.265625 158.40625 C 313.269531 182.113281 306.011719 205.035156 292.648438 224.292969 Z M 306.613281 119.777344 C 304.371094 121.863281 298.621094 126.34375 290.902344 126.03125 C 286.308594 125.835938 283.175781 122.234375 279.546875 118.074219 C 275.585938 113.527344 271.09375 108.371094 263.742188 107.039062 C 256.792969 105.785156 251.542969 108.59375 246.464844 111.3125 C 241.054688 114.214844 235.953125 116.960938 228.363281 115.359375 C 219.519531 113.496094 218.148438 106.96875 216.5625 99.40625 C 215.703125 95.3125 214.816406 91.078125 212.460938 87.945312 C 209.777344 84.363281 205.289062 82.714844 200.542969 80.964844 C 193.699219 78.445312 187.234375 76.066406 186.289062 68.066406 C 184.847656 55.839844 201.992188 45.078125 205.535156 42.996094 C 252.3125 46.21875 291.523438 77.320312 306.613281 119.777344 Z M 153.78125 51.285156 C 154.070312 57.460938 157.472656 62.589844 160.589844 67.199219 C 163.902344 72.097656 167.03125 76.722656 166.222656 81.984375 C 165.234375 88.410156 159.894531 90.699219 153.714844 93.351562 C 149.40625 95.199219 144.949219 97.109375 142.074219 100.6875 C 138.773438 104.796875 138.460938 109.375 138.1875 113.417969 C 137.867188 118.191406 137.585938 122.3125 133.140625 126.199219 C 128.539062 130.226562 121.171875 129.527344 115.804688 128.230469 C 110.195312 126.886719 104.433594 129.089844 101.097656 133.851562 C 98.664062 137.324219 96.140625 139.789062 93.804688 140.976562 C 89.6875 143.070312 85.308594 141.390625 83.175781 140.285156 C 89.5625 99.871094 116.953125 66.367188 153.78125 51.285156 Z M 82.03125 150.726562 C 82.980469 152.0625 83.988281 153.335938 84.988281 154.585938 C 88.273438 158.703125 91.105469 162.257812 91.105469 167.414062 C 91.105469 171.929688 89.640625 175.703125 87.945312 180.070312 C 87.0625 182.339844 86.144531 184.753906 85.386719 187.402344 C 82.984375 178.042969 81.746094 168.328125 81.746094 158.40625 C 81.746094 155.824219 81.863281 153.269531 82.03125 150.726562 Z M 162.179688 357.769531 L 99.636719 357.808594 L 99.636719 348.476562 C 99.636719 344.09375 98.664062 339.746094 96.824219 335.90625 C 89.929688 321.523438 79.003906 306.8125 69.359375 293.835938 C 60.542969 281.960938 52.210938 270.75 49.144531 262.59375 C 43.550781 247.703125 40.566406 189.902344 39.78125 172.542969 C 39.609375 168.691406 42.367188 165.378906 46.191406 164.84375 C 46.539062 164.792969 46.882812 164.773438 47.222656 164.773438 C 50.714844 164.773438 53.824219 167.253906 54.535156 170.726562 C 49.597656 172.773438 46.410156 177.914062 47.011719 183.394531 C 49.566406 206.601562 54.296875 247.039062 57.28125 257.121094 C 61.316406 270.761719 73.191406 282.929688 73.695312 283.4375 C 74.699219 284.457031 76.335938 284.464844 77.351562 283.46875 C 78.367188 282.464844 78.378906 280.832031 77.382812 279.816406 C 77.265625 279.699219 65.910156 268.070312 62.238281 255.65625 C 59.261719 245.597656 54.191406 201.375 52.152344 182.828125 C 51.75 179.164062 54.277344 175.761719 57.90625 175.082031 C 57.914062 175.082031 57.917969 175.078125 57.925781 175.078125 C 59.863281 174.722656 61.792969 175.160156 63.378906 176.308594 C 64.972656 177.460938 65.996094 179.175781 66.257812 181.128906 C 68.488281 197.84375 73.15625 227.886719 79.3125 241.324219 C 84.574219 252.796875 97.011719 263.691406 106.515625 270.8125 C 108.941406 272.628906 112.105469 272.667969 114.566406 270.914062 C 117.023438 269.160156 118.015625 266.171875 117.09375 263.296875 L 101.0625 213.355469 C 100.171875 210.578125 100.417969 207.621094 101.753906 205.027344 C 103.09375 202.441406 105.359375 200.527344 108.136719 199.644531 C 113.257812 198.015625 118.890625 200.433594 121.234375 205.253906 C 128.125 219.445312 141.269531 247.082031 149.90625 268.738281 C 149.910156 268.75 149.917969 268.765625 149.921875 268.777344 C 154.125 279.316406 157.261719 288.4375 158.074219 293.886719 C 160.828125 312.335938 161.921875 347.835938 162.179688 357.769531 Z M 154.289062 265.765625 C 153.574219 263.980469 152.828125 262.160156 152.058594 260.304688 C 153.835938 257.828125 158.898438 251.707031 166.101562 251.007812 C 170.023438 250.632812 173.453125 251.386719 176.898438 253.375 C 181.4375 255.996094 187.109375 256.320312 192.070312 254.246094 C 198.59375 251.515625 207.640625 249.171875 211.515625 250.21875 C 214.695312 251.070312 215.070312 255.335938 214.824219 258.769531 C 214.554688 262.566406 215.867188 266.332031 218.433594 269.101562 L 220.871094 271.738281 C 213.226562 273.304688 205.421875 274.125 197.503906 274.125 C 182.554688 274.125 168.019531 271.300781 154.289062 265.765625 Z M 226.667969 270.402344 L 222.230469 265.597656 C 220.628906 263.867188 219.808594 261.515625 219.976562 259.140625 C 220.710938 248.902344 215.832031 246.035156 212.855469 245.234375 C 206.777344 243.605469 195.671875 247.136719 190.074219 249.484375 C 186.589844 250.9375 182.628906 250.726562 179.484375 248.910156 C 175.0625 246.351562 170.667969 245.382812 165.605469 245.871094 C 158.230469 246.582031 152.824219 251.339844 149.769531 254.863281 C 142.089844 236.863281 132.707031 217.050781 125.878906 203 C 122.421875 195.878906 114.128906 192.320312 106.570312 194.71875 C 102.472656 196.023438 99.128906 198.839844 97.160156 202.65625 C 95.363281 206.132812 94.917969 210.050781 95.839844 213.816406 C 93.191406 208.984375 90.914062 203.984375 88.996094 198.851562 C 88.875 191.996094 90.84375 186.878906 92.761719 181.9375 C 94.488281 177.492188 96.273438 172.894531 96.273438 167.414062 C 96.273438 160.445312 92.585938 155.828125 89.023438 151.363281 C 87.769531 149.792969 86.5625 148.261719 85.511719 146.65625 C 86.746094 146.957031 88.097656 147.152344 89.527344 147.152344 C 91.625 147.152344 93.878906 146.726562 96.140625 145.582031 C 99.273438 143.988281 102.363281 141.039062 105.328125 136.808594 C 107.433594 133.800781 111.078125 132.402344 114.589844 133.25 C 123.984375 135.519531 131.578125 134.421875 136.539062 130.082031 C 142.59375 124.785156 142.992188 118.929688 143.339844 113.761719 C 143.597656 110.003906 143.816406 106.761719 146.097656 103.917969 C 148.167969 101.34375 151.851562 99.765625 155.742188 98.09375 C 162.378906 95.246094 169.902344 92.023438 171.324219 82.765625 C 172.445312 75.5 168.589844 69.804688 164.867188 64.300781 C 161.566406 59.417969 158.476562 54.773438 158.96875 49.300781 C 170.777344 45.121094 183.457031 42.800781 196.65625 42.703125 C 189.546875 48.039062 179.832031 57.496094 181.152344 68.671875 C 182.46875 79.816406 191.496094 83.140625 198.753906 85.8125 C 202.765625 87.289062 206.558594 88.679688 208.324219 91.039062 C 209.992188 93.257812 210.726562 96.757812 211.5 100.457031 C 213.125 108.207031 215.148438 117.851562 227.292969 120.410156 C 236.710938 122.394531 243.1875 118.921875 248.90625 115.859375 C 253.589844 113.34375 257.632812 111.167969 262.8125 112.117188 C 268.378906 113.125 271.910156 117.171875 275.644531 121.460938 C 279.683594 126.097656 283.859375 130.890625 290.667969 131.1875 C 291.027344 131.203125 291.378906 131.210938 291.730469 131.210938 C 299.214844 131.210938 305.003906 127.753906 308.351562 125.09375 C 309.371094 128.480469 310.253906 131.925781 310.964844 135.433594 C 308.292969 134.167969 304.796875 133.171875 300.792969 133.671875 C 296.488281 134.199219 292.371094 137.484375 288.011719 140.964844 C 283.402344 144.644531 278.183594 148.8125 272.332031 150.003906 C 266.476562 151.179688 251.648438 148.382812 238.566406 145.894531 C 225.851562 143.484375 213.851562 141.207031 208.058594 142.003906 C 194.363281 143.894531 180.863281 162.59375 183.285156 184.785156 C 185.09375 201.335938 205.046875 209.296875 218.25 214.5625 C 223.058594 216.480469 228.03125 218.464844 229.222656 219.847656 C 231.183594 222.125 230.679688 224.417969 229.535156 228.613281 C 228.570312 232.144531 227.375 236.535156 228.679688 241.542969 C 230.203125 247.375 235.523438 251.09375 243.296875 251.890625 C 241.007812 257.179688 238.847656 262.355469 236.914062 267.222656 C 233.546875 268.449219 230.128906 269.503906 226.667969 270.402344 Z M 342.648438 262.59375 C 339.582031 270.75 331.253906 281.960938 322.4375 293.835938 C 312.796875 306.8125 301.867188 321.523438 294.976562 335.902344 C 293.132812 339.746094 292.160156 344.09375 292.160156 348.476562 L 292.160156 357.808594 L 229.617188 357.769531 C 229.878906 347.835938 230.96875 312.332031 233.722656 293.882812 C 234.496094 288.710938 237.359375 280.226562 241.246094 270.359375 C 241.253906 270.34375 241.257812 270.320312 241.265625 270.304688 C 249.882812 248.433594 263.507812 219.785156 270.566406 205.253906 C 272.910156 200.433594 278.542969 198.015625 283.660156 199.644531 C 286.4375 200.527344 288.707031 202.441406 290.042969 205.027344 C 291.382812 207.621094 291.625 210.574219 290.738281 213.351562 L 274.707031 263.296875 C 273.78125 266.171875 274.773438 269.160156 277.234375 270.914062 C 279.691406 272.667969 282.859375 272.628906 285.28125 270.816406 C 294.789062 263.691406 307.222656 252.796875 312.484375 241.320312 C 318.644531 227.886719 323.308594 197.84375 325.542969 181.128906 C 325.804688 179.175781 326.824219 177.460938 328.421875 176.308594 C 330.003906 175.160156 331.941406 174.722656 333.875 175.078125 C 333.878906 175.078125 333.886719 175.082031 333.890625 175.082031 C 337.519531 175.761719 340.050781 179.164062 339.648438 182.828125 C 337.605469 201.375 332.539062 245.597656 329.566406 255.65625 C 325.902344 268.039062 314.535156 279.699219 314.421875 279.816406 C 313.421875 280.832031 313.4375 282.464844 314.453125 283.46875 C 315.476562 284.46875 317.101562 284.457031 318.109375 283.4375 C 318.609375 282.929688 330.488281 270.761719 334.523438 257.121094 C 337.503906 247.039062 342.234375 206.601562 344.789062 183.394531 C 345.390625 177.910156 342.203125 172.769531 337.269531 170.722656 C 338.050781 166.910156 341.734375 164.304688 345.609375 164.84375 C 349.4375 165.378906 352.199219 168.691406 352.023438 172.542969 C 351.230469 189.902344 348.246094 247.703125 342.648438 262.59375 Z M 342.648438 262.59375 " fill-opacity="1" fill-rule="nonzero"/></g><g clip-path="url(#id2)"><path fill="#8ab340" d="M 343.074219 159.726562 C 336.433594 158.789062 330.207031 163.28125 328.929688 169.792969 C 326.503906 169.867188 324.160156 170.660156 322.140625 172.121094 C 319.390625 174.117188 317.621094 177.070312 317.167969 180.445312 C 314.972656 196.871094 310.414062 226.347656 304.535156 239.167969 C 299.730469 249.65625 287.960938 259.914062 278.933594 266.675781 C 278.058594 267.335938 277.273438 266.910156 276.980469 266.703125 C 276.691406 266.496094 276.046875 265.898438 276.378906 264.871094 L 284.851562 238.464844 C 304.414062 216.363281 315.1875 187.960938 315.1875 158.410156 C 315.1875 152.460938 314.738281 146.617188 313.902344 140.894531 C 313.902344 140.894531 313.902344 140.890625 313.902344 140.886719 C 305.386719 82.507812 254.988281 37.523438 194.261719 37.523438 C 133.503906 37.523438 83.085938 82.554688 74.605469 140.980469 C 74.589844 141.039062 74.585938 141.09375 74.574219 141.152344 C 74.554688 141.246094 74.554688 141.335938 74.546875 141.425781 C 73.761719 146.976562 73.332031 152.644531 73.332031 158.40625 C 73.332031 185.355469 82.007812 210.824219 98.410156 232.105469 L 108.929688 264.875 C 109.257812 265.902344 108.617188 266.5 108.324219 266.703125 C 108.03125 266.917969 107.25 267.339844 106.371094 266.675781 C 97.34375 259.917969 85.574219 249.65625 80.769531 239.171875 C 74.890625 226.347656 70.332031 196.875 68.136719 180.445312 C 67.683594 177.074219 65.917969 174.121094 63.164062 172.125 C 61.144531 170.664062 58.800781 169.867188 56.375 169.796875 C 55.101562 163.285156 48.84375 158.789062 42.230469 159.726562 C 35.75 160.636719 31.082031 166.246094 31.375 172.78125 C 32.386719 195.277344 35.359375 249.242188 41.0625 264.414062 C 44.382812 273.25 52.53125 284.21875 61.96875 296.921875 C 71.472656 309.710938 82.242188 324.203125 88.917969 338.144531 C 90.425781 341.292969 91.226562 344.867188 91.226562 348.480469 L 91.226562 360.394531 C 91.226562 361.082031 91.496094 361.738281 91.984375 362.222656 C 92.46875 362.703125 93.125 362.976562 93.808594 362.976562 L 161.582031 362.933594 C 162.277344 362.933594 162.941406 362.652344 163.429688 362.152344 C 163.914062 361.660156 164.175781 360.988281 164.164062 360.292969 C 164.125 358.453125 163.195312 314.929688 159.9375 293.117188 C 159.214844 288.289062 156.863281 280.929688 153.585938 272.277344 C 166.605469 276.929688 180.257812 279.285156 194.257812 279.285156 C 204.167969 279.285156 213.921875 278.074219 223.40625 275.726562 C 223.445312 275.710938 223.484375 275.710938 223.523438 275.695312 C 226.117188 275.050781 228.695312 274.34375 231.242188 273.527344 C 228.210938 281.632812 226.046875 288.523438 225.363281 293.121094 C 222.105469 314.929688 221.175781 358.457031 221.136719 360.296875 C 221.121094 360.992188 221.386719 361.660156 221.871094 362.15625 C 222.355469 362.652344 223.019531 362.933594 223.714844 362.933594 L 291.496094 362.976562 C 291.5 362.976562 291.5 362.976562 291.5 362.976562 C 292.183594 362.976562 292.84375 362.707031 293.324219 362.222656 C 293.808594 361.734375 294.082031 361.082031 294.082031 360.394531 L 294.082031 348.476562 C 294.082031 344.863281 294.878906 341.285156 296.390625 338.136719 C 303.066406 324.199219 313.835938 309.703125 323.339844 296.914062 C 332.773438 284.214844 340.921875 273.246094 344.246094 264.410156 C 349.949219 249.238281 352.921875 195.273438 353.933594 172.773438 C 354.222656 166.246094 349.554688 160.632812 343.074219 159.726562 Z M 289.402344 224.292969 L 292.40625 214.929688 C 293.722656 210.835938 293.359375 206.476562 291.386719 202.65625 C 289.414062 198.835938 286.070312 196.023438 281.976562 194.71875 C 274.425781 192.320312 266.121094 195.878906 262.667969 203 C 256.835938 215.003906 249.140625 231.210938 242.234375 246.898438 C 239.121094 246.8125 231.941406 245.992188 230.4375 240.238281 C 229.480469 236.566406 230.390625 233.214844 231.273438 229.976562 C 232.429688 225.738281 233.738281 220.941406 229.894531 216.480469 C 227.878906 214.136719 223.28125 212.304688 216.921875 209.765625 C 204.152344 204.671875 186.65625 197.691406 185.183594 184.230469 C 182.929688 163.609375 195.726562 148.480469 205.523438 147.125 C 210.457031 146.441406 222.609375 148.75 234.363281 150.976562 C 249.230469 153.796875 263.277344 156.472656 270.117188 155.070312 C 277.195312 153.628906 282.933594 149.050781 287.996094 145.007812 C 291.765625 141.996094 295.328125 139.148438 298.175781 138.804688 C 303.253906 138.195312 307.367188 141.015625 308.863281 142.210938 C 309.609375 147.507812 310.019531 152.910156 310.019531 158.40625 C 310.023438 182.113281 302.765625 205.035156 289.402344 224.292969 Z M 303.367188 119.777344 C 301.125 121.863281 295.375 126.34375 287.65625 126.03125 C 283.0625 125.835938 279.929688 122.234375 276.300781 118.074219 C 272.339844 113.527344 267.847656 108.371094 260.496094 107.039062 C 253.546875 105.785156 248.296875 108.59375 243.21875 111.3125 C 237.808594 114.214844 232.707031 116.960938 225.117188 115.359375 C 216.273438 113.496094 214.902344 106.96875 213.316406 99.40625 C 212.457031 95.3125 211.570312 91.078125 209.214844 87.945312 C 206.53125 84.363281 202.046875 82.714844 197.296875 80.964844 C 190.453125 78.445312 183.988281 76.066406 183.042969 68.066406 C 181.601562 55.839844 198.746094 45.078125 202.289062 42.996094 C 249.066406 46.21875 288.277344 77.320312 303.367188 119.777344 Z M 150.535156 51.285156 C 150.828125 57.460938 154.226562 62.589844 157.34375 67.199219 C 160.660156 72.097656 163.789062 76.722656 162.980469 81.984375 C 161.988281 88.410156 156.652344 90.699219 150.46875 93.351562 C 146.160156 95.199219 141.703125 97.109375 138.828125 100.6875 C 135.527344 104.796875 135.21875 109.375 134.941406 113.417969 C 134.621094 118.191406 134.339844 122.3125 129.898438 126.199219 C 125.292969 130.226562 117.929688 129.527344 112.558594 128.230469 C 106.953125 126.886719 101.1875 129.089844 97.851562 133.851562 C 95.417969 137.324219 92.894531 139.789062 90.558594 140.976562 C 86.441406 143.070312 82.0625 141.390625 79.929688 140.285156 C 86.316406 99.871094 113.707031 66.367188 150.535156 51.285156 Z M 78.785156 150.726562 C 79.734375 152.0625 80.742188 153.335938 81.742188 154.585938 C 85.027344 158.703125 87.859375 162.257812 87.859375 167.414062 C 87.859375 171.929688 86.394531 175.703125 84.699219 180.070312 C 83.816406 182.339844 82.898438 184.753906 82.144531 187.402344 C 79.738281 178.042969 78.5 168.328125 78.5 158.40625 C 78.5 155.824219 78.617188 153.269531 78.785156 150.726562 Z M 158.933594 357.769531 L 96.390625 357.808594 L 96.390625 348.476562 C 96.390625 344.09375 95.417969 339.746094 93.578125 335.90625 C 86.683594 321.523438 75.757812 306.8125 66.113281 293.835938 C 57.296875 281.960938 48.964844 270.75 45.902344 262.59375 C 40.304688 247.703125 37.320312 189.902344 36.535156 172.542969 C 36.363281 168.691406 39.121094 165.378906 42.945312 164.84375 C 43.292969 164.792969 43.636719 164.773438 43.976562 164.773438 C 47.46875 164.773438 50.578125 167.253906 51.289062 170.726562 C 46.351562 172.773438 43.164062 177.914062 43.765625 183.394531 C 46.320312 206.601562 51.050781 247.039062 54.035156 257.121094 C 58.070312 270.761719 69.945312 282.929688 70.449219 283.4375 C 71.453125 284.457031 73.089844 284.464844 74.105469 283.46875 C 75.121094 282.464844 75.132812 280.832031 74.136719 279.816406 C 74.019531 279.699219 62.664062 268.070312 58.992188 255.65625 C 56.015625 245.597656 50.945312 201.375 48.90625 182.828125 C 48.503906 179.164062 51.03125 175.761719 54.660156 175.082031 C 54.667969 175.082031 54.671875 175.078125 54.679688 175.078125 C 56.617188 174.722656 58.546875 175.160156 60.132812 176.308594 C 61.726562 177.460938 62.75 179.175781 63.011719 181.128906 C 65.242188 197.84375 69.910156 227.886719 76.066406 241.324219 C 81.328125 252.796875 93.765625 263.691406 103.273438 270.8125 C 105.695312 272.628906 108.859375 272.667969 111.320312 270.914062 C 113.777344 269.160156 114.769531 266.171875 113.847656 263.296875 L 97.816406 213.355469 C 96.925781 210.578125 97.171875 207.621094 98.507812 205.027344 C 99.847656 202.441406 102.113281 200.527344 104.890625 199.644531 C 110.011719 198.015625 115.644531 200.433594 117.988281 205.253906 C 124.878906 219.445312 138.027344 247.082031 146.660156 268.738281 C 146.667969 268.75 146.671875 268.765625 146.675781 268.777344 C 150.878906 279.316406 154.015625 288.4375 154.828125 293.886719 C 157.582031 312.335938 158.675781 347.835938 158.933594 357.769531 Z M 151.042969 265.765625 C 150.328125 263.980469 149.582031 262.160156 148.8125 260.304688 C 150.589844 257.828125 155.652344 251.707031 162.855469 251.007812 C 166.777344 250.632812 170.207031 251.386719 173.652344 253.375 C 178.191406 255.996094 183.863281 256.320312 188.824219 254.246094 C 195.347656 251.515625 204.394531 249.171875 208.269531 250.21875 C 211.449219 251.070312 211.824219 255.335938 211.578125 258.769531 C 211.308594 262.566406 212.621094 266.332031 215.1875 269.101562 L 217.625 271.738281 C 209.980469 273.304688 202.175781 274.125 194.257812 274.125 C 179.308594 274.125 164.773438 271.300781 151.042969 265.765625 Z M 223.421875 270.402344 L 218.984375 265.597656 C 217.382812 263.867188 216.5625 261.515625 216.730469 259.140625 C 217.464844 248.902344 212.585938 246.035156 209.609375 245.234375 C 203.535156 243.605469 192.425781 247.136719 186.828125 249.484375 C 183.34375 250.9375 179.382812 250.726562 176.238281 248.910156 C 171.816406 246.351562 167.421875 245.382812 162.359375 245.871094 C 154.984375 246.582031 149.578125 251.339844 146.523438 254.863281 C 138.84375 236.863281 129.460938 217.050781 122.632812 203 C 119.175781 195.878906 110.882812 192.320312 103.324219 194.71875 C 99.226562 196.023438 95.882812 198.839844 93.914062 202.65625 C 92.121094 206.132812 91.671875 210.050781 92.59375 213.816406 C 89.945312 208.984375 87.667969 203.984375 85.75 198.851562 C 85.628906 191.996094 87.597656 186.878906 89.515625 181.9375 C 91.242188 177.492188 93.027344 172.894531 93.027344 167.414062 C 93.027344 160.445312 89.339844 155.828125 85.777344 151.363281 C 84.523438 149.792969 83.320312 148.261719 82.265625 146.65625 C 83.503906 146.957031 84.851562 147.152344 86.28125 147.152344 C 88.378906 147.152344 90.632812 146.726562 92.894531 145.582031 C 96.027344 143.988281 99.121094 141.039062 102.082031 136.808594 C 104.1875 133.800781 107.832031 132.402344 111.34375 133.25 C 120.738281 135.519531 128.332031 134.421875 133.292969 130.082031 C 139.347656 124.785156 139.746094 118.929688 140.09375 113.761719 C 140.351562 110.003906 140.570312 106.761719 142.851562 103.917969 C 144.921875 101.34375 148.605469 99.765625 152.5 98.09375 C 159.132812 95.246094 166.65625 92.023438 168.078125 82.765625 C 169.199219 75.5 165.34375 69.804688 161.621094 64.300781 C 158.320312 59.417969 155.230469 54.773438 155.722656 49.300781 C 167.53125 45.121094 180.210938 42.800781 193.414062 42.703125 C 186.300781 48.039062 176.589844 57.496094 177.90625 68.671875 C 179.222656 79.816406 188.253906 83.140625 195.507812 85.8125 C 199.519531 87.289062 203.3125 88.679688 205.078125 91.039062 C 206.746094 93.257812 207.480469 96.757812 208.253906 100.457031 C 209.878906 108.207031 211.902344 117.851562 224.046875 120.410156 C 233.464844 122.394531 239.945312 118.921875 245.660156 115.859375 C 250.34375 113.34375 254.386719 111.167969 259.566406 112.117188 C 265.132812 113.125 268.664062 117.171875 272.398438 121.460938 C 276.4375 126.097656 280.613281 130.890625 287.421875 131.1875 C 287.78125 131.203125 288.132812 131.210938 288.484375 131.210938 C 295.96875 131.210938 301.757812 127.753906 305.105469 125.09375 C 306.125 128.480469 307.007812 131.925781 307.71875 135.433594 C 305.046875 134.167969 301.550781 133.171875 297.546875 133.671875 C 293.242188 134.199219 289.125 137.484375 284.765625 140.964844 C 280.15625 144.644531 274.9375 148.8125 269.085938 150.003906 C 263.234375 151.179688 248.402344 148.382812 235.320312 145.894531 C 222.605469 143.484375 210.605469 141.207031 204.8125 142.003906 C 191.117188 143.894531 177.617188 162.59375 180.039062 184.785156 C 181.847656 201.335938 201.800781 209.296875 215.007812 214.5625 C 219.8125 216.480469 224.785156 218.464844 225.976562 219.847656 C 227.9375 222.125 227.433594 224.417969 226.289062 228.613281 C 225.328125 232.144531 224.128906 236.535156 225.433594 241.542969 C 226.957031 247.375 232.277344 251.09375 240.050781 251.890625 C 237.761719 257.179688 235.601562 262.355469 233.667969 267.222656 C 230.304688 268.449219 226.882812 269.503906 223.421875 270.402344 Z M 339.40625 262.59375 C 336.335938 270.75 328.007812 281.960938 319.191406 293.835938 C 309.550781 306.8125 298.621094 321.523438 291.730469 335.902344 C 289.886719 339.746094 288.914062 344.09375 288.914062 348.476562 L 288.914062 357.808594 L 226.371094 357.769531 C 226.632812 347.835938 227.722656 312.332031 230.480469 293.882812 C 231.25 288.710938 234.113281 280.226562 238 270.359375 C 238.007812 270.34375 238.011719 270.320312 238.019531 270.304688 C 246.636719 248.433594 260.261719 219.785156 267.320312 205.253906 C 269.664062 200.433594 275.296875 198.015625 280.414062 199.644531 C 283.195312 200.527344 285.460938 202.441406 286.796875 205.027344 C 288.136719 207.621094 288.378906 210.574219 287.492188 213.351562 L 271.460938 263.296875 C 270.539062 266.171875 271.527344 269.160156 273.988281 270.914062 C 276.445312 272.667969 279.613281 272.628906 282.035156 270.816406 C 291.542969 263.691406 303.980469 252.796875 309.238281 241.320312 C 315.398438 227.886719 320.0625 197.84375 322.296875 181.128906 C 322.558594 179.175781 323.582031 177.460938 325.175781 176.308594 C 326.757812 175.160156 328.695312 174.722656 330.628906 175.078125 C 330.632812 175.078125 330.640625 175.082031 330.644531 175.082031 C 334.273438 175.761719 336.804688 179.164062 336.402344 182.828125 C 334.359375 201.375 329.292969 245.597656 326.320312 255.65625 C 322.65625 268.039062 311.292969 279.699219 311.175781 279.816406 C 310.175781 280.832031 310.191406 282.464844 311.207031 283.46875 C 312.230469 284.46875 313.855469 284.457031 314.863281 283.4375 C 315.363281 282.929688 327.242188 270.761719 331.277344 257.121094 C 334.257812 247.039062 338.988281 206.601562 341.542969 183.394531 C 342.144531 177.910156 338.957031 172.769531 334.023438 170.722656 C 334.804688 166.910156 338.488281 164.304688 342.367188 164.84375 C 346.191406 165.378906 348.953125 168.691406 348.777344 172.542969 C 347.984375 189.902344 345 247.703125 339.40625 262.59375 Z M 339.40625 262.59375 " fill-opacity="1" fill-rule="nonzero"/></g></svg>