<svg xmlns="http://www.w3.org/2000/svg" xmlns:xlink="http://www.w3.org/1999/xlink" width="500" zoomAndPan="magnify" viewBox="0 0 375 374.999991" height="500" preserveAspectRatio="xMidYMid meet" version="1.0"><defs><clipPath id="id1"><path d="M 136.414062 246 L 189.921875 246 L 189.921875 299.621094 L 136.414062 299.621094 Z M 136.414062 246 " clip-rule="nonzero"/></clipPath><clipPath id="id2"><path d="M 216 207.414062 L 270 207.414062 L 270 299.621094 L 216 299.621094 Z M 216 207.414062 " clip-rule="nonzero"/></clipPath><clipPath id="id3"><path d="M 296.15625 150.722656 L 349.515625 150.722656 L 349.515625 299.621094 L 296.15625 299.621094 Z M 296.15625 150.722656 " clip-rule="nonzero"/></clipPath><clipPath id="id4"><path d="M 136 75.371094 L 328 75.371094 L 328 230 L 136 230 Z M 136 75.371094 " clip-rule="nonzero"/></clipPath><clipPath id="id5"><path d="M 291 75.371094 L 328 75.371094 L 328 112 L 291 112 Z M 291 75.371094 " clip-rule="nonzero"/></clipPath><clipPath id="id6"><path d="M 20 111 L 161 111 L 161 322.300781 L 20 322.300781 Z M 20 111 " clip-rule="nonzero"/></clipPath><clipPath id="id7"><path d="M 23.855469 107.335938 L 170.789062 107.335938 L 170.789062 244.566406 L 23.855469 244.566406 Z M 23.855469 107.335938 " clip-rule="nonzero"/></clipPath></defs><g clip-path="url(#id1)"><path fill="#227bc0" d="M 152.472656 255.480469 C 148.554688 255.480469 145.355469 258.675781 145.355469 262.601562 L 145.355469 283.554688 C 145.355469 287.480469 148.554688 290.679688 152.472656 290.679688 L 173.417969 290.679688 C 177.339844 290.679688 180.535156 287.480469 180.535156 283.554688 L 180.535156 262.601562 C 180.535156 258.675781 177.339844 255.480469 173.417969 255.480469 Z M 173.417969 299.628906 L 152.472656 299.628906 C 143.617188 299.628906 136.414062 292.417969 136.414062 283.554688 L 136.414062 262.601562 C 136.414062 253.738281 143.617188 246.53125 152.472656 246.53125 L 173.417969 246.53125 C 182.273438 246.53125 189.476562 253.738281 189.476562 262.601562 L 189.476562 283.554688 C 189.476562 292.417969 182.273438 299.628906 173.417969 299.628906 " fill-opacity="1" fill-rule="nonzero"/></g><g clip-path="url(#id2)"><path fill="#227bc0" d="M 232.5 216.566406 C 228.566406 216.566406 225.375 219.765625 225.375 223.6875 L 225.375 283.554688 C 225.375 287.480469 228.566406 290.679688 232.5 290.679688 L 253.433594 290.679688 C 257.363281 290.679688 260.5625 287.480469 260.5625 283.554688 L 260.5625 223.6875 C 260.5625 219.765625 257.363281 216.566406 253.433594 216.566406 Z M 253.433594 299.628906 L 232.5 299.628906 C 223.632812 299.628906 216.429688 292.417969 216.429688 283.554688 L 216.429688 223.6875 C 216.429688 214.828125 223.632812 207.617188 232.5 207.617188 L 253.433594 207.617188 C 262.296875 207.617188 269.503906 214.828125 269.503906 223.6875 L 269.503906 283.554688 C 269.503906 292.417969 262.296875 299.628906 253.433594 299.628906 " fill-opacity="1" fill-rule="nonzero"/></g><g clip-path="url(#id3)"><path fill="#227bc0" d="M 312.511719 159.695312 C 308.59375 159.695312 305.398438 162.894531 305.398438 166.816406 L 305.398438 283.554688 C 305.398438 287.480469 308.59375 290.679688 312.511719 290.679688 L 333.457031 290.679688 C 337.378906 290.679688 340.574219 287.480469 340.574219 283.554688 L 340.574219 166.816406 C 340.574219 162.894531 337.378906 159.695312 333.457031 159.695312 Z M 333.457031 299.628906 L 312.511719 299.628906 C 303.65625 299.628906 296.457031 292.417969 296.457031 283.554688 L 296.457031 166.816406 C 296.457031 157.953125 303.65625 150.746094 312.511719 150.746094 L 333.457031 150.746094 C 342.3125 150.746094 349.519531 157.953125 349.519531 166.816406 L 349.519531 283.554688 C 349.519531 292.417969 342.3125 299.628906 333.457031 299.628906 " fill-opacity="1" fill-rule="nonzero"/></g><g clip-path="url(#id4)"><path fill="#227bc0" d="M 140.886719 229.65625 C 139.574219 229.65625 138.265625 229.078125 137.382812 227.972656 C 135.847656 226.03125 136.167969 223.214844 138.101562 221.679688 L 320.203125 76.886719 C 322.148438 75.367188 324.960938 75.671875 326.488281 77.601562 C 328.023438 79.542969 327.703125 82.359375 325.773438 83.898438 L 143.671875 228.6875 C 142.84375 229.34375 141.863281 229.65625 140.886719 229.65625 " fill-opacity="1" fill-rule="nonzero"/></g><g clip-path="url(#id5)"><path fill="#227bc0" d="M 322.984375 111.851562 C 320.515625 111.851562 318.511719 109.851562 318.511719 107.375 L 318.511719 84.867188 L 296.015625 84.867188 C 293.546875 84.867188 291.546875 82.863281 291.546875 80.394531 C 291.546875 77.917969 293.546875 75.917969 296.015625 75.917969 L 322.984375 75.917969 C 325.457031 75.917969 327.457031 77.917969 327.457031 80.394531 L 327.457031 107.375 C 327.457031 109.851562 325.457031 111.851562 322.984375 111.851562 " fill-opacity="1" fill-rule="nonzero"/></g><g clip-path="url(#id6)"><path fill="#ffffff" d="M 160.140625 231.152344 C 159.640625 232.960938 157.933594 240.085938 156.328125 240.386719 C 155.21875 240.597656 154.546875 241.132812 154.234375 241.449219 C 155.550781 252.222656 155.511719 262.175781 154.21875 268.292969 C 151.558594 280.890625 136.078125 280.273438 136.078125 280.273438 L 141.167969 322.300781 C 141.167969 322.300781 63.421875 321.148438 41.476562 321.148438 C 47.148438 300.4375 45.777344 275.941406 46.160156 276.027344 C 35.84375 265.21875 17.8125 238.613281 20.6875 217.632812 C 23.46875 197.371094 39.011719 188.730469 50.707031 185.070312 C 53.21875 175.90625 57.160156 155.640625 60.777344 141.050781 C 64.390625 126.460938 85.078125 108.011719 100.203125 112.5625 C 115.328125 117.113281 114.394531 139.734375 114.394531 139.734375 C 114.394531 139.734375 114.546875 150.410156 110.367188 160.46875 C 108.929688 163.941406 106.722656 179.3125 112.78125 186.128906 C 122.40625 188.1875 130.585938 190.792969 134.472656 193.539062 C 138.125 196.125 141.265625 200.179688 143.925781 205.125 C 143.734375 204.726562 143.710938 204.261719 143.882812 203.808594 C 144.183594 203.015625 144.988281 202.441406 145.800781 202.441406 C 146.351562 202.445312 146.820312 202.6875 147.105469 203.109375 C 147.109375 203.109375 147.109375 203.113281 147.109375 203.117188 C 147.558594 202.59375 148.210938 202.253906 148.871094 202.253906 C 149.46875 202.257812 149.976562 202.519531 150.285156 202.972656 C 150.605469 203.445312 150.664062 204.054688 150.441406 204.644531 C 150.101562 205.550781 149.183594 206.207031 148.261719 206.207031 L 148.242188 206.207031 C 147.664062 206.203125 147.15625 205.941406 146.847656 205.488281 C 146.820312 205.449219 146.804688 205.402344 146.78125 205.363281 C 146.394531 205.757812 145.867188 206.003906 145.335938 206.003906 L 145.320312 206.003906 C 144.796875 206 144.332031 205.761719 144.046875 205.351562 C 145.921875 208.878906 147.550781 212.851562 148.941406 217.0625 C 150.078125 216.171875 151.886719 215.132812 153.113281 216.296875 L 151.355469 221.078125 C 152.019531 221.367188 152.804688 221.847656 153.214844 222.621094 C 154.015625 224.125 156.027344 224.425781 157.230469 226.03125 C 158.433594 227.640625 160.644531 229.347656 160.140625 231.152344 " fill-opacity="1" fill-rule="nonzero"/></g><path fill="#a9db51" d="M 133.191406 248.460938 C 133.222656 248.769531 136.410156 279.292969 136.808594 292.023438 C 136.824219 292.5 136.449219 292.902344 135.972656 292.914062 C 135.964844 292.914062 135.957031 292.914062 135.945312 292.914062 C 135.480469 292.914062 135.097656 292.546875 135.082031 292.078125 C 134.6875 279.410156 131.503906 248.949219 131.472656 248.640625 C 131.421875 248.167969 131.765625 247.742188 132.242188 247.695312 C 132.714844 247.644531 133.140625 247.988281 133.191406 248.460938 Z M 73.46875 252.457031 C 73.679688 252.886719 73.5 253.402344 73.074219 253.609375 C 72.949219 253.671875 72.820312 253.699219 72.695312 253.699219 C 72.375 253.699219 72.066406 253.519531 71.917969 253.214844 C 71.84375 253.058594 64.40625 237.757812 58.574219 223.175781 C 52.835938 208.828125 40.332031 198.050781 40.207031 197.945312 C 39.84375 197.636719 39.800781 197.089844 40.109375 196.730469 C 40.421875 196.367188 40.964844 196.324219 41.328125 196.632812 C 41.457031 196.742188 54.277344 207.78125 60.175781 222.53125 C 65.988281 237.058594 73.394531 252.304688 73.46875 252.457031 Z M 149.367188 204.238281 C 149.191406 204.695312 148.695312 205.0625 148.253906 205.058594 C 147.808594 205.054688 147.59375 204.679688 147.765625 204.222656 C 147.9375 203.765625 148.4375 203.398438 148.878906 203.402344 C 149.320312 203.40625 149.539062 203.78125 149.367188 204.238281 Z M 146.179688 204.230469 C 146.046875 204.578125 145.667969 204.855469 145.332031 204.851562 C 144.992188 204.851562 144.828125 204.566406 144.960938 204.214844 C 145.089844 203.867188 145.472656 203.585938 145.808594 203.589844 C 146.148438 203.59375 146.3125 203.878906 146.179688 204.230469 Z M 154.882812 200.601562 L 153.910156 199.179688 C 153.460938 198.527344 152.71875 198.125 151.925781 198.109375 L 131.710938 197.671875 C 130.683594 197.648438 129.746094 198.269531 129.363281 199.222656 L 125.644531 208.527344 C 126.160156 209.234375 126.410156 210.441406 125.605469 212.480469 C 123.898438 216.796875 119.679688 221.316406 121.992188 223.722656 C 124.300781 226.132812 144.078125 219.609375 147.894531 218.003906 C 147.894531 218.003906 149 216.832031 150.304688 216.191406 L 155.167969 202.84375 C 155.4375 202.09375 155.335938 201.257812 154.882812 200.601562 " fill-opacity="1" fill-rule="nonzero"/><path fill="#008037" d="M 91.445312 147.527344 C 92.570312 147.707031 93.628906 146.9375 93.808594 145.816406 C 93.988281 144.691406 93.21875 143.632812 92.09375 143.453125 C 90.96875 143.273438 89.914062 144.039062 89.734375 145.164062 C 89.554688 146.292969 90.320312 147.347656 91.445312 147.527344 Z M 106.921875 147.441406 C 105.796875 147.261719 104.738281 148.027344 104.558594 149.152344 C 104.378906 150.277344 105.148438 151.335938 106.273438 151.515625 C 107.398438 151.691406 108.457031 150.925781 108.632812 149.800781 C 108.8125 148.675781 108.046875 147.617188 106.921875 147.441406 Z M 101.714844 150.578125 C 101.695312 150.300781 101.660156 150.023438 101.613281 149.746094 L 101.53125 149.328125 C 101.503906 149.191406 101.417969 149.054688 101.097656 148.925781 C 100.792969 149.078125 100.71875 149.21875 100.699219 149.359375 L 100.644531 149.777344 C 100.617188 150.054688 100.597656 150.332031 100.59375 150.609375 C 100.585938 151.167969 100.597656 151.71875 100.5625 152.273438 C 100.496094 153.382812 100.378906 154.488281 100.316406 155.582031 C 100.292969 156.128906 100.253906 156.667969 100.238281 157.191406 C 100.21875 157.441406 100.214844 157.71875 100.183594 157.917969 C 100.160156 158.136719 100.097656 158.292969 100.015625 158.492188 C 99.828125 158.867188 99.511719 159.230469 99.152344 159.578125 C 98.972656 159.75 98.78125 159.925781 98.582031 160.09375 C 98.480469 160.179688 98.378906 160.265625 98.273438 160.34375 C 98.164062 160.417969 98.085938 160.542969 98.097656 160.925781 C 98.367188 161.199219 98.542969 161.203125 98.679688 161.152344 C 98.824219 161.105469 98.964844 161.058594 99.109375 161.003906 C 99.386719 160.890625 99.664062 160.765625 99.929688 160.601562 C 100.457031 160.28125 100.9375 159.835938 101.328125 159.257812 C 101.507812 158.964844 101.679688 158.613281 101.757812 158.28125 C 101.855469 157.933594 101.894531 157.65625 101.941406 157.351562 C 102.023438 156.769531 102.039062 156.195312 102.039062 155.628906 C 102.039062 154.496094 101.914062 153.375 101.816406 152.253906 C 101.761719 151.699219 101.753906 151.136719 101.714844 150.578125 Z M 87.976562 162.535156 C 87.777344 162.339844 87.632812 162.097656 87.445312 161.882812 L 87.164062 161.558594 C 87.070312 161.449219 86.925781 161.371094 86.574219 161.398438 C 86.375 161.675781 86.386719 161.84375 86.445312 161.984375 L 86.628906 162.40625 C 86.769531 162.679688 86.878906 162.972656 87.082031 163.210938 C 87.457031 163.699219 87.824219 164.199219 88.277344 164.632812 C 89.101562 165.570312 90.15625 166.359375 91.339844 166.847656 C 92.519531 167.371094 93.820312 167.515625 95.066406 167.480469 C 95.691406 167.453125 96.3125 167.410156 96.917969 167.269531 C 97.222656 167.203125 97.519531 167.113281 97.8125 167.007812 C 97.957031 166.957031 98.101562 166.894531 98.246094 166.835938 C 98.390625 166.785156 98.527344 166.664062 98.5625 166.28125 C 98.316406 165.984375 98.171875 165.945312 98.03125 165.960938 C 97.886719 165.964844 97.746094 165.980469 97.605469 165.976562 C 97.320312 165.988281 97.039062 165.992188 96.761719 165.996094 C 96.203125 166.003906 95.652344 166 95.101562 165.960938 C 94.003906 165.875 92.964844 165.582031 91.960938 165.246094 C 91.710938 165.164062 91.453125 165.085938 91.21875 164.957031 C 90.976562 164.84375 90.71875 164.753906 90.488281 164.621094 L 89.789062 164.210938 C 89.542969 164.085938 89.355469 163.882812 89.128906 163.722656 C 88.675781 163.402344 88.355469 162.945312 87.976562 162.535156 Z M 109.195312 144.339844 C 109.253906 144.378906 109.355469 144.363281 109.664062 144.183594 C 109.882812 143.898438 109.890625 143.777344 109.847656 143.714844 L 109.738281 143.5 C 109.660156 143.359375 109.574219 143.226562 109.480469 143.105469 C 109.292969 142.855469 109.0625 142.648438 108.832031 142.4375 C 108.367188 142.027344 107.863281 141.625 107.257812 141.414062 C 106.667969 141.171875 106.011719 141.113281 105.382812 141.085938 C 105.226562 141.078125 105.070312 141.066406 104.917969 141.054688 C 104.761719 141.054688 104.605469 141.046875 104.449219 141.054688 C 104.292969 141.050781 104.136719 141.085938 103.984375 141.132812 L 103.757812 141.210938 C 103.6875 141.238281 103.613281 141.324219 103.574219 141.636719 C 103.679688 141.945312 103.75 142.023438 103.816406 142.042969 L 104.019531 142.097656 L 104.410156 142.175781 C 104.539062 142.195312 104.667969 142.203125 104.796875 142.21875 C 104.921875 142.242188 105.046875 142.277344 105.175781 142.316406 C 105.667969 142.484375 106.113281 142.75 106.558594 142.988281 C 106.996094 143.242188 107.480469 143.414062 107.941406 143.667969 C 108.171875 143.796875 108.390625 143.941406 108.632812 144.066406 C 108.75 144.132812 108.875 144.191406 109 144.253906 Z M 82.125 320.15625 C 81.714844 319.960938 81.292969 319.804688 80.90625 319.550781 C 80.511719 319.324219 80.117188 319.101562 79.75 318.820312 C 79.375 318.554688 78.992188 318.308594 78.636719 318.011719 C 77.191406 316.878906 75.832031 315.609375 74.554688 314.253906 C 72.015625 311.527344 69.746094 308.539062 67.519531 305.519531 C 65.285156 302.503906 63.15625 299.390625 61.109375 296.230469 C 60.09375 294.636719 59.128906 293.019531 58.171875 291.394531 L 56.726562 288.964844 L 55.988281 287.753906 C 55.746094 287.347656 55.453125 286.972656 54.957031 286.699219 C 54.898438 287.261719 55.050781 287.722656 55.257812 288.148438 L 55.878906 289.429688 C 56.296875 290.28125 56.75 291.113281 57.203125 291.945312 C 58.125 293.605469 59.082031 295.242188 60.039062 296.878906 C 60.992188 298.523438 61.964844 300.152344 62.972656 301.765625 C 63.992188 303.367188 65.039062 304.957031 66.121094 306.523438 C 67.238281 308.066406 68.363281 309.609375 69.597656 311.070312 C 70.828125 312.53125 72.109375 313.957031 73.46875 315.316406 C 74.832031 316.664062 76.277344 317.953125 77.890625 319.046875 C 78.28125 319.332031 78.699219 319.585938 79.128906 319.820312 C 79.542969 320.074219 79.996094 320.277344 80.441406 320.480469 C 80.875 320.707031 81.359375 320.839844 81.820312 321.003906 C 82.050781 321.097656 82.300781 321.128906 82.558594 321.128906 C 82.8125 321.117188 83.074219 321.089844 83.335938 320.964844 C 82.949219 320.480469 82.542969 320.34375 82.125 320.15625 Z M 151.640625 245.359375 C 151.382812 245.425781 151.125 245.480469 150.859375 245.515625 C 150.59375 245.546875 150.339844 245.609375 150.074219 245.636719 C 149.808594 245.65625 149.546875 245.6875 149.285156 245.714844 C 148.230469 245.777344 147.164062 245.804688 146.105469 245.660156 C 145.046875 245.53125 144.003906 245.296875 142.984375 244.980469 C 141.972656 244.667969 140.945312 244.269531 140.046875 243.820312 C 139.660156 243.625 139.1875 243.777344 138.988281 244.160156 L 138.976562 244.183594 C 138.242188 245.59375 137.574219 247.015625 136.953125 248.46875 C 136.308594 249.910156 135.792969 251.40625 135.265625 252.898438 C 134.757812 254.394531 134.289062 255.914062 133.9375 257.472656 C 133.859375 257.867188 133.773438 258.253906 133.699219 258.648438 C 133.640625 259.046875 133.597656 259.449219 133.546875 259.847656 C 133.515625 260.253906 133.507812 260.664062 133.488281 261.066406 C 133.476562 261.472656 133.527344 261.910156 133.9375 262.273438 C 134.359375 261.851562 134.371094 261.503906 134.410156 261.128906 C 134.484375 260.757812 134.542969 260.386719 134.621094 260.019531 C 134.71875 259.648438 134.820312 259.28125 134.90625 258.910156 L 135.226562 257.808594 C 135.6875 256.34375 136.175781 254.878906 136.757812 253.441406 C 137.316406 252 137.960938 250.585938 138.546875 249.152344 L 140.117188 245.5625 C 140.949219 245.875 141.769531 246.109375 142.621094 246.3125 C 143.726562 246.574219 144.855469 246.746094 145.984375 246.847656 C 147.117188 246.953125 148.269531 246.9375 149.402344 246.785156 C 149.6875 246.742188 149.96875 246.695312 150.25 246.640625 C 150.527344 246.582031 150.804688 246.492188 151.078125 246.410156 C 151.617188 246.246094 152.203125 246.117188 152.542969 245.472656 C 152.1875 245.320312 151.90625 245.3125 151.640625 245.359375 Z M 112.476562 255.28125 C 111.035156 252.707031 109.5625 250.148438 108.09375 247.585938 L 105.859375 243.761719 C 105.074219 242.507812 104.5 241.140625 103.28125 240.121094 C 103.492188 241.6875 104.34375 242.910156 104.992188 244.238281 L 107.039062 248.179688 C 108.347656 250.640625 109.652344 253.105469 110.980469 255.554688 C 107.414062 259.824219 103.734375 264.019531 99.972656 268.125 C 98.054688 270.25 96.105469 272.34375 94.125 274.410156 C 92.15625 276.480469 90.148438 278.515625 88.074219 280.476562 C 85.996094 282.425781 83.886719 284.351562 81.609375 286.023438 C 80.484375 286.871094 79.296875 287.628906 78.066406 288.238281 C 77.453125 288.53125 76.816406 288.777344 76.195312 288.886719 L 75.730469 288.960938 C 75.566406 288.976562 75.386719 288.964844 75.214844 288.96875 L 74.175781 288.972656 C 72.789062 288.886719 71.398438 288.722656 70.042969 288.363281 C 68.679688 288.039062 67.34375 287.578125 66.042969 287.035156 C 64.738281 286.496094 63.460938 285.878906 62.226562 285.183594 C 60.972656 284.5 59.863281 283.648438 58.4375 283.152344 C 59.257812 284.445312 60.554688 285.175781 61.765625 285.960938 C 63.007812 286.71875 64.273438 287.445312 65.621094 288.019531 C 68.28125 289.207031 71.160156 290.003906 74.125 290.167969 L 75.238281 290.179688 C 75.425781 290.179688 75.605469 290.191406 75.800781 290.175781 L 76.398438 290.09375 C 77.191406 289.957031 77.910156 289.683594 78.589844 289.371094 C 79.949219 288.738281 81.210938 287.972656 82.398438 287.125 C 84.796875 285.449219 87 283.5625 89.136719 281.621094 C 91.273438 279.675781 93.335938 277.65625 95.359375 275.601562 C 97.371094 273.535156 99.328125 271.421875 101.265625 269.292969 C 105.09375 264.988281 108.804688 260.597656 112.414062 256.101562 C 112.59375 255.878906 112.628906 255.554688 112.480469 255.289062 Z M 97.230469 240.683594 C 95.328125 241.542969 93.410156 242.398438 91.484375 243.238281 C 87.632812 244.910156 83.753906 246.5625 79.964844 248.433594 C 78.078125 249.378906 76.203125 250.355469 74.351562 251.375 C 72.503906 252.410156 70.683594 253.5 68.910156 254.660156 C 67.128906 255.816406 65.378906 257.027344 63.734375 258.386719 C 62.910156 259.0625 62.117188 259.789062 61.394531 260.574219 C 61.015625 260.953125 60.683594 261.378906 60.332031 261.78125 C 59.988281 262.191406 59.726562 262.683594 59.640625 263.273438 C 60.230469 263.058594 60.589844 262.699219 60.957031 262.332031 C 61.324219 261.96875 61.667969 261.589844 62.066406 261.253906 C 62.445312 260.90625 62.832031 260.5625 63.234375 260.234375 C 63.625 259.894531 64.019531 259.5625 64.433594 259.25 C 66.0625 257.96875 67.785156 256.796875 69.570312 255.722656 C 71.363281 254.65625 73.203125 253.660156 75.066406 252.722656 C 76.929688 251.769531 78.8125 250.859375 80.714844 249.980469 L 92.113281 244.621094 C 94.015625 243.71875 95.925781 242.820312 97.796875 241.828125 C 98.738281 241.347656 99.65625 240.8125 100.566406 240.269531 C 101.019531 239.984375 101.476562 239.71875 101.917969 239.414062 C 102.371094 239.136719 102.78125 238.761719 103.015625 238.179688 C 102.375 238.175781 101.914062 238.394531 101.453125 238.644531 C 101.003906 238.898438 100.53125 239.121094 100.070312 239.359375 C 99.132812 239.8125 98.183594 240.242188 97.230469 240.683594 Z M 116.871094 214.308594 L 116.605469 214.789062 L 116.386719 215.242188 L 115.964844 216.144531 L 114.285156 219.75 C 113.175781 222.160156 112.085938 224.578125 110.9375 226.96875 C 110.359375 228.160156 109.796875 229.359375 109.238281 230.5625 C 108.96875 231.167969 108.695312 231.773438 108.4375 232.382812 C 108.1875 233 107.835938 233.566406 107.96875 234.367188 C 108.683594 233.976562 108.910156 233.351562 109.246094 232.777344 C 109.570312 232.199219 109.878906 231.617188 110.1875 231.03125 C 110.800781 229.855469 111.398438 228.675781 111.984375 227.488281 C 113.167969 225.125 114.40625 222.785156 115.625 220.4375 L 117.4375 216.90625 L 117.886719 216.027344 L 118.113281 215.589844 L 118.34375 215.207031 C 118.667969 214.695312 119.039062 214.179688 119.441406 213.679688 C 120.964844 211.808594 122.636719 209.96875 124.363281 208.226562 C 124.378906 208.234375 124.390625 208.238281 124.402344 208.246094 C 124.550781 208.335938 124.695312 208.453125 124.832031 208.589844 C 125.101562 208.851562 125.359375 209.214844 125.542969 209.550781 C 125.578125 209.601562 125.609375 209.75 125.609375 209.925781 C 125.617188 210.097656 125.589844 210.300781 125.558594 210.503906 C 125.488281 210.917969 125.367188 211.355469 125.222656 211.785156 C 124.925781 212.644531 124.5625 213.511719 124.175781 214.367188 C 123.980469 214.796875 123.777344 215.222656 123.5625 215.640625 C 123.339844 216.058594 123.160156 216.496094 123.230469 217.097656 C 123.800781 216.890625 124.105469 216.507812 124.355469 216.09375 C 124.613281 215.683594 124.867188 215.273438 125.109375 214.855469 C 125.292969 214.546875 125.46875 214.234375 125.636719 213.917969 L 121.929688 223.65625 C 121.953125 223.675781 121.96875 223.699219 121.992188 223.722656 C 122.273438 224.015625 122.816406 224.175781 123.558594 224.230469 L 131.863281 202.421875 C 131.878906 202.375 131.894531 202.332031 131.902344 202.289062 C 132.070312 201.484375 132.445312 201.027344 133.90625 201.082031 L 153.183594 201.257812 C 153.671875 201.273438 154.050781 200.878906 154.054688 200.402344 C 154.058594 199.925781 153.675781 199.535156 153.199219 199.53125 L 133.941406 199.355469 C 131.871094 199.285156 130.617188 200.128906 130.226562 201.867188 L 126.988281 210.371094 C 127.007812 210.230469 127.019531 210.085938 127.023438 209.9375 C 127.03125 209.636719 127.011719 209.296875 126.832031 208.914062 C 126.578125 208.40625 126.292969 207.976562 125.898438 207.550781 C 125.703125 207.34375 125.484375 207.148438 125.230469 206.976562 C 125.101562 206.890625 124.96875 206.8125 124.820312 206.742188 C 124.792969 206.730469 124.757812 206.71875 124.730469 206.707031 C 124.730469 206.683594 124.730469 206.660156 124.726562 206.636719 C 124.710938 206.503906 124.6875 206.375 124.691406 206.226562 C 124.683594 205.941406 124.652344 205.671875 124.648438 205.382812 C 124.628906 204.820312 124.597656 204.25 124.589844 203.675781 C 124.589844 202.523438 124.667969 201.367188 124.628906 200.207031 C 124.617188 199.042969 124.542969 197.871094 124.527344 196.699219 C 124.519531 196.113281 124.558594 195.527344 124.578125 194.941406 C 124.589844 194.648438 124.582031 194.355469 124.570312 194.058594 L 124.539062 193.617188 C 124.53125 193.46875 124.464844 193.316406 124.164062 193.140625 C 123.839844 193.257812 123.746094 193.398438 123.710938 193.542969 L 123.605469 193.980469 C 123.542969 194.273438 123.492188 194.5625 123.460938 194.859375 C 123.390625 195.445312 123.355469 196.039062 123.277344 196.625 C 123.125 197.804688 122.960938 198.988281 122.910156 200.179688 C 122.835938 201.371094 122.945312 202.570312 123.074219 203.773438 C 123.152344 204.375 123.226562 204.976562 123.378906 205.578125 C 123.441406 205.875 123.566406 206.179688 123.664062 206.472656 C 123.6875 206.539062 123.71875 206.609375 123.75 206.679688 C 123.722656 206.699219 123.691406 206.71875 123.664062 206.742188 L 123.632812 206.769531 C 122.644531 207.683594 121.695312 208.613281 120.761719 209.578125 C 119.820312 210.53125 118.917969 211.527344 118.078125 212.605469 C 117.652344 213.136719 117.25 213.703125 116.871094 214.308594 Z M 106.941406 193.578125 C 107.832031 192.386719 108.460938 190.984375 108.734375 189.519531 C 108.871094 188.789062 108.917969 188.042969 108.875 187.304688 C 108.839844 186.578125 108.660156 185.816406 108.101562 185.242188 C 107.972656 186.011719 107.96875 186.65625 107.972656 187.328125 C 107.96875 187.996094 107.882812 188.660156 107.71875 189.300781 C 107.394531 190.585938 106.75 191.761719 105.933594 192.800781 C 104.242188 194.851562 101.855469 196.28125 99.34375 197.316406 C 96.808594 198.332031 94.113281 199.027344 91.398438 199.472656 C 88.703125 199.90625 85.957031 200.027344 83.226562 199.785156 C 80.488281 199.589844 77.777344 199.019531 75.128906 198.234375 C 72.476562 197.460938 69.890625 196.433594 67.390625 195.222656 C 64.886719 194.011719 62.484375 192.582031 60.167969 191.039062 C 59.003906 190.269531 57.867188 189.464844 56.738281 188.644531 C 56.175781 188.230469 55.617188 187.8125 55.070312 187.378906 C 54.519531 186.949219 53.941406 186.5625 53.21875 186.3125 C 53.519531 187.023438 54.007812 187.550781 54.535156 188.019531 C 55.066406 188.492188 55.609375 188.945312 56.152344 189.398438 C 57.238281 190.308594 58.375 191.152344 59.539062 191.960938 C 61.871094 193.574219 64.300781 195.039062 66.828125 196.339844 C 71.84375 198.980469 77.328125 200.917969 83.070312 201.5 C 85.933594 201.75 88.851562 201.691406 91.691406 201.148438 C 94.507812 200.628906 97.273438 199.855469 99.933594 198.714844 C 102.558594 197.554688 105.144531 195.980469 106.941406 193.578125 Z M 83.125 171.261719 C 81.34375 169.933594 79.609375 168.496094 77.996094 166.914062 C 77.195312 166.117188 76.441406 165.277344 75.695312 164.429688 L 74.570312 163.15625 L 74.003906 162.527344 C 73.8125 162.3125 73.582031 162.136719 73.164062 162.085938 C 73.074219 162.5 73.183594 162.785156 73.335938 163.027344 L 73.808594 163.753906 C 74.132812 164.230469 74.480469 164.691406 74.839844 165.144531 C 75.5625 166.042969 76.320312 166.914062 77.089844 167.773438 C 78.613281 169.507812 80.242188 171.179688 82.082031 172.628906 C 83.914062 174.089844 86.003906 175.273438 88.265625 176.046875 C 89.394531 176.4375 90.585938 176.699219 91.792969 176.746094 C 92.09375 176.769531 92.394531 176.773438 92.699219 176.746094 C 93 176.722656 93.300781 176.722656 93.597656 176.65625 C 93.894531 176.597656 94.195312 176.570312 94.480469 176.484375 C 94.773438 176.410156 95.058594 176.273438 95.25 175.871094 C 94.882812 175.582031 94.609375 175.554688 94.339844 175.59375 C 94.070312 175.625 93.792969 175.597656 93.523438 175.609375 C 93.253906 175.621094 92.980469 175.585938 92.714844 175.566406 L 92.3125 175.535156 L 91.910156 175.472656 C 90.847656 175.308594 89.796875 175.039062 88.789062 174.617188 C 87.78125 174.207031 86.808594 173.699219 85.871094 173.125 C 84.945312 172.53125 84.019531 171.921875 83.125 171.261719 Z M 57.753906 226.316406 L 58.664062 227.070312 C 58.980469 227.316406 59.242188 227.601562 59.535156 227.863281 L 59.96875 228.265625 L 60.378906 228.6875 C 60.644531 228.972656 60.957031 229.226562 61.207031 229.527344 L 61.601562 229.964844 C 61.726562 230.121094 61.902344 230.234375 62.320312 230.214844 C 62.507812 229.863281 62.453125 229.644531 62.351562 229.460938 L 62.054688 228.902344 C 61.855469 228.523438 61.59375 228.199219 61.355469 227.851562 C 61.117188 227.5 60.847656 227.179688 60.558594 226.875 C 60.273438 226.574219 60.007812 226.242188 59.703125 225.960938 C 58.53125 224.765625 57.257812 223.691406 55.875 222.777344 C 54.503906 221.851562 53.03125 221.101562 51.566406 220.367188 C 51.203125 220.175781 50.839844 219.992188 50.46875 219.808594 C 50.105469 219.621094 49.742188 219.433594 49.371094 219.261719 C 49.003906 219.082031 48.621094 218.929688 48.238281 218.78125 L 47.652344 218.578125 C 47.457031 218.515625 47.238281 218.5 46.925781 218.703125 C 46.984375 219.074219 47.128906 219.230469 47.300781 219.332031 L 47.816406 219.65625 C 48.160156 219.863281 48.511719 220.0625 48.863281 220.261719 C 49.566406 220.640625 50.273438 221.03125 50.953125 221.457031 C 52.304688 222.324219 53.613281 223.25 54.890625 224.191406 L 56.804688 225.605469 Z M 153.96875 237.632812 C 153.96875 237.628906 153.976562 237.621094 153.980469 237.617188 C 153.972656 237.625 153.96875 237.632812 153.96875 237.632812 Z M 157.757812 230.09375 L 157.582031 231.019531 C 157.457031 231.628906 157.328125 232.242188 157.179688 232.851562 C 156.890625 234.070312 156.546875 235.269531 156.160156 236.480469 C 155.949219 237.097656 155.773438 237.671875 155.421875 238.355469 C 155.371094 238.441406 155.3125 238.535156 155.222656 238.652344 C 155.175781 238.714844 155.121094 238.78125 155.011719 238.867188 C 154.839844 238.988281 154.890625 238.957031 154.847656 238.988281 C 154.757812 239.066406 154.640625 239.164062 154.523438 239.257812 C 154.289062 239.445312 154.019531 239.628906 153.730469 239.789062 C 153.160156 240.121094 152.507812 240.359375 151.84375 240.53125 C 151.511719 240.621094 151.1875 240.722656 150.839844 240.765625 C 150.835938 240.765625 150.832031 240.765625 150.828125 240.765625 C 150.898438 241.007812 150.957031 241.25 151 241.503906 C 151.042969 241.492188 151.066406 241.484375 151.078125 241.484375 C 151.105469 241.484375 151.132812 241.484375 151.160156 241.480469 C 151.203125 241.480469 151.246094 241.476562 151.277344 241.488281 C 151.34375 241.503906 151.421875 241.539062 151.519531 241.519531 C 151.722656 241.492188 151.945312 241.359375 152.171875 241.308594 C 152.402344 241.226562 152.667969 241.269531 152.949219 241.25 C 153.089844 241.242188 153.230469 241.230469 153.382812 241.238281 C 153.460938 241.242188 153.539062 241.257812 153.625 241.273438 L 153.75 241.308594 C 153.789062 241.308594 153.855469 241.378906 154.015625 241.691406 C 154.109375 242.03125 154.101562 242.128906 154.070312 242.152344 L 153.984375 242.261719 C 153.925781 242.332031 153.863281 242.398438 153.796875 242.453125 C 153.667969 242.570312 153.507812 242.628906 153.359375 242.714844 C 153.0625 242.863281 152.730469 243.027344 152.359375 243.019531 C 151.984375 243.027344 151.59375 242.910156 151.207031 242.730469 C 151.164062 242.710938 151.125 242.691406 151.082031 242.671875 C 151.070312 242.8125 151.050781 242.960938 151.019531 243.117188 C 150.933594 243.417969 150.820312 243.824219 150.363281 244.15625 C 150.140625 244.320312 149.84375 244.390625 149.625 244.40625 C 149.457031 244.414062 149.300781 244.402344 149.148438 244.382812 C 148.851562 244.335938 148.601562 244.25 148.378906 244.167969 C 147.507812 243.800781 146.960938 243.488281 146.296875 243.492188 C 145.542969 243.476562 144.695312 243.5625 143.855469 243.558594 C 143.433594 243.558594 143.003906 243.542969 142.5625 243.492188 C 142.339844 243.464844 142.117188 243.425781 141.886719 243.375 C 141.761719 243.335938 141.65625 243.308594 141.542969 243.195312 C 141.492188 243.136719 141.445312 243.089844 141.410156 243.003906 C 141.378906 242.914062 141.351562 242.832031 141.367188 242.730469 C 141.726562 242.542969 141.824219 242.453125 142.015625 242.480469 C 142.195312 242.476562 142.382812 242.460938 142.574219 242.441406 C 142.960938 242.402344 143.359375 242.335938 143.761719 242.277344 C 144.574219 242.160156 145.371094 242.035156 146.273438 241.972656 C 147.296875 241.894531 148.292969 242.332031 148.953125 242.554688 C 149.101562 242.601562 149.230469 242.632812 149.335938 242.648438 C 149.355469 242.550781 149.371094 242.441406 149.367188 242.304688 C 149.378906 241.652344 149.210938 240.882812 148.984375 240.160156 C 148.925781 239.976562 148.863281 239.792969 148.792969 239.613281 L 148.742188 239.480469 L 148.695312 239.398438 C 148.660156 239.339844 148.644531 239.277344 148.605469 239.21875 C 148.429688 239 148.191406 238.765625 147.871094 238.59375 C 147.25 238.234375 146.472656 238.039062 145.699219 237.902344 C 145.496094 237.863281 145.289062 237.828125 145.085938 237.792969 C 144.855469 238.128906 144.625 238.457031 144.355469 238.796875 C 143.992188 239.269531 143.589844 239.691406 143.164062 240.082031 C 142.328125 240.875 141.398438 241.523438 140.457031 242.113281 C 139.511719 242.703125 138.546875 243.246094 137.566406 243.742188 C 133.628906 245.6875 129.554688 247.164062 125.558594 248.769531 C 123.5625 249.574219 121.570312 250.375 119.640625 251.285156 C 118.671875 251.734375 117.71875 252.207031 116.808594 252.738281 C 115.859375 253.25 115.140625 253.960938 113.992188 254.308594 C 114.359375 253.117188 115.398438 252.542969 116.277344 251.90625 C 117.191406 251.285156 118.136719 250.730469 119.097656 250.199219 C 121.03125 249.183594 123.011719 248.277344 125.003906 247.433594 C 128.980469 245.722656 133 244.140625 136.777344 242.191406 C 138.65625 241.226562 140.503906 240.164062 142.015625 238.824219 C 142.394531 238.488281 142.746094 238.136719 143.050781 237.761719 C 143.171875 237.617188 143.292969 237.460938 143.410156 237.300781 C 143.375 237.261719 143.34375 237.226562 143.308594 237.175781 C 143.464844 236.933594 143.632812 236.832031 143.796875 236.789062 C 143.816406 236.757812 143.839844 236.726562 143.863281 236.695312 C 143.425781 236.960938 142.980469 237.207031 142.503906 237.390625 C 141.789062 237.683594 141.039062 237.878906 140.304688 238.097656 C 139.9375 238.207031 139.585938 238.355469 139.222656 238.480469 C 139.039062 238.539062 138.851562 238.585938 138.660156 238.621094 L 138.371094 238.664062 C 138.273438 238.675781 138.15625 238.636719 137.953125 238.378906 C 137.929688 238.054688 137.984375 237.945312 138.066406 237.890625 L 138.304688 237.722656 C 138.464844 237.617188 138.628906 237.519531 138.800781 237.441406 C 139.140625 237.273438 139.488281 237.132812 139.820312 236.949219 C 140.480469 236.578125 141.117188 236.167969 141.785156 235.824219 C 142.4375 235.464844 143.144531 235.222656 143.824219 234.933594 C 144.160156 234.789062 144.488281 234.625 144.828125 234.492188 L 145.332031 234.292969 C 145.410156 234.265625 145.476562 234.238281 145.542969 234.210938 L 145.765625 233.863281 C 146.402344 232.832031 147 231.769531 147.5625 230.691406 C 147.246094 230.917969 146.921875 231.128906 146.597656 231.328125 C 145.488281 231.992188 144.355469 232.585938 143.152344 232.996094 C 141.960938 233.425781 140.734375 233.726562 139.511719 234.023438 L 137.699219 234.507812 C 137.394531 234.585938 137.085938 234.644531 136.773438 234.691406 L 136.304688 234.75 C 136.148438 234.765625 135.972656 234.730469 135.746094 234.464844 C 135.816406 234.121094 135.945312 234.003906 136.085938 233.945312 L 136.515625 233.757812 C 136.804688 233.640625 137.09375 233.527344 137.386719 233.433594 C 137.972656 233.242188 138.558594 233.050781 139.136719 232.832031 C 140.285156 232.378906 141.402344 231.863281 142.527344 231.394531 C 143.644531 230.898438 144.789062 230.503906 145.875 229.992188 C 146.414062 229.738281 146.929688 229.449219 147.429688 229.15625 C 147.675781 229.011719 147.921875 228.863281 148.148438 228.695312 C 148.269531 228.617188 148.371094 228.53125 148.480469 228.441406 C 148.539062 228.390625 148.605469 228.351562 148.710938 228.335938 C 148.726562 228.300781 148.746094 228.269531 148.757812 228.238281 C 149.1875 227.261719 149.601562 226.28125 149.9375 225.28125 C 150.101562 224.777344 150.257812 224.273438 150.390625 223.773438 C 150.449219 223.53125 150.511719 223.269531 150.558594 223.023438 L 150.355469 223.285156 C 150.101562 223.589844 149.804688 223.847656 149.519531 224.113281 C 149.234375 224.390625 148.90625 224.597656 148.59375 224.835938 C 148.289062 225.074219 147.972656 225.308594 147.648438 225.511719 C 146.382812 226.417969 145.042969 227.210938 143.652344 227.871094 C 142.265625 228.550781 140.792969 229.015625 139.328125 229.453125 C 138.59375 229.667969 137.859375 229.886719 137.109375 230.046875 C 136.738281 230.132812 136.355469 230.195312 135.980469 230.261719 L 135.40625 230.339844 C 135.21875 230.375 135.011719 230.347656 134.742188 230.046875 C 134.835938 229.65625 134.996094 229.53125 135.171875 229.46875 L 135.691406 229.246094 L 136.734375 228.816406 L 138.832031 228.015625 C 140.222656 227.472656 141.578125 226.851562 142.949219 226.296875 C 144.316406 225.722656 145.699219 225.171875 146.984375 224.457031 C 147.308594 224.28125 147.621094 224.085938 147.921875 223.878906 C 148.21875 223.667969 148.539062 223.476562 148.8125 223.242188 C 149.09375 223.011719 149.40625 222.816406 149.6875 222.585938 L 150.109375 222.242188 C 150.230469 222.144531 150.390625 222.078125 150.667969 222.105469 C 150.675781 222.082031 150.683594 222.054688 150.695312 222.03125 C 151.15625 221.199219 151.59375 220.324219 151.980469 219.449219 C 152.363281 218.582031 152.738281 217.667969 152.859375 216.816406 C 152.886719 216.609375 152.890625 216.410156 152.863281 216.289062 C 152.820312 216.160156 152.867188 216.222656 152.691406 216.121094 C 152.410156 216.003906 151.953125 216.054688 151.53125 216.171875 C 151.09375 216.28125 150.671875 216.480469 150.230469 216.664062 C 149.789062 216.84375 149.332031 217.011719 148.796875 217.097656 C 149.34375 216.148438 150.277344 215.679688 151.269531 215.320312 C 151.777344 215.164062 152.339844 215.003906 153.003906 215.191406 C 153.171875 215.269531 153.3125 215.289062 153.511719 215.464844 C 153.6875 215.621094 153.789062 215.820312 153.84375 215.996094 C 153.949219 216.351562 153.941406 216.652344 153.914062 216.933594 C 153.777344 218.035156 153.402344 218.964844 153.027344 219.898438 C 152.648438 220.78125 152.238281 221.625 151.785156 222.46875 C 151.78125 223.085938 151.660156 223.546875 151.554688 224.058594 C 151.425781 224.601562 151.269531 225.136719 151.109375 225.660156 C 150.773438 226.714844 150.394531 227.742188 149.984375 228.757812 C 149.148438 230.785156 148.191406 232.757812 147.09375 234.660156 L 146.242188 236.070312 L 145.765625 236.785156 C 145.800781 236.789062 145.835938 236.789062 145.867188 236.792969 C 146.445312 236.871094 147.027344 236.984375 147.609375 237.167969 C 147.632812 237.132812 147.652344 237.101562 147.675781 237.074219 C 147.769531 236.980469 147.855469 236.882812 147.9375 236.773438 C 148.109375 236.570312 148.261719 236.339844 148.421875 236.113281 C 148.742188 235.65625 149.027344 235.152344 149.265625 234.621094 C 149.726562 233.546875 150.058594 232.40625 150.425781 231.28125 C 150.773438 230.148438 151.214844 229.042969 151.597656 227.90625 C 151.792969 227.339844 151.964844 226.765625 152.171875 226.203125 C 152.273438 225.917969 152.390625 225.636719 152.5 225.355469 L 152.675781 224.933594 C 152.726562 224.792969 152.835938 224.664062 153.214844 224.59375 C 153.53125 224.816406 153.574219 224.984375 153.554688 225.136719 L 153.523438 225.601562 C 153.496094 225.90625 153.464844 226.210938 153.417969 226.515625 C 153.332031 227.125 153.191406 227.71875 153.0625 228.316406 C 152.789062 229.511719 152.515625 230.714844 152.046875 231.863281 C 151.601562 233.011719 151.027344 234.125 150.375 235.199219 C 150.054688 235.738281 149.722656 236.28125 149.316406 236.792969 C 149.109375 237.042969 148.875 237.28125 148.59375 237.484375 C 148.578125 237.5 148.550781 237.507812 148.53125 237.523438 C 148.929688 237.707031 149.328125 237.972656 149.675781 238.339844 C 149.769531 238.441406 149.84375 238.566406 149.925781 238.683594 L 150.039062 238.859375 L 150.121094 239.011719 C 150.222656 239.207031 150.316406 239.410156 150.40625 239.613281 C 150.425781 239.652344 150.4375 239.691406 150.453125 239.730469 C 150.507812 239.710938 150.5625 239.691406 150.613281 239.671875 C 150.878906 239.601562 151.144531 239.503906 151.394531 239.375 C 151.890625 239.101562 152.324219 238.714844 152.792969 238.367188 C 153.023438 238.1875 153.261719 238.003906 153.535156 237.839844 C 153.671875 237.753906 153.808594 237.671875 153.988281 237.585938 C 153.992188 237.585938 154 237.582031 154.007812 237.578125 C 154.015625 237.566406 154.023438 237.554688 154.03125 237.542969 C 154.277344 237.132812 154.519531 236.53125 154.730469 235.980469 C 155.167969 234.84375 155.546875 233.660156 155.953125 232.496094 L 156.574219 230.738281 L 156.890625 229.863281 C 156.988281 229.566406 157.148438 229.289062 157.566406 229.078125 C 157.824219 229.46875 157.820312 229.789062 157.757812 230.09375 Z M 148.878906 203.402344 C 148.4375 203.398438 147.9375 203.765625 147.765625 204.222656 C 147.59375 204.679688 147.808594 205.054688 148.253906 205.058594 C 148.695312 205.0625 149.191406 204.695312 149.367188 204.238281 C 149.539062 203.78125 149.320312 203.40625 148.878906 203.402344 Z M 145.808594 203.589844 C 145.472656 203.585938 145.089844 203.867188 144.960938 204.214844 C 144.828125 204.566406 144.992188 204.851562 145.332031 204.851562 C 145.667969 204.855469 146.046875 204.578125 146.179688 204.230469 C 146.3125 203.878906 146.148438 203.59375 145.808594 203.589844 Z M 150.191406 202.492188 C 150.96875 202.5 151.484375 203.296875 151.171875 204.007812 L 150.570312 205.363281 C 150.394531 205.757812 150 206.011719 149.5625 206.003906 L 143.773438 205.894531 C 143.03125 205.878906 142.523438 205.136719 142.785156 204.4375 L 143.269531 203.15625 C 143.425781 202.734375 143.832031 202.453125 144.28125 202.457031 Z M 70.484375 172.796875 C 71.554688 163.691406 71.824219 160.746094 71.824219 160.746094 C 71.824219 160.746094 69.429688 156.878906 69.867188 148.617188 C 69.828125 148.605469 69.792969 148.601562 69.75 148.589844 C 66.773438 147.695312 66.980469 142.78125 68.550781 139.511719 C 68.609375 139.390625 68.667969 139.273438 68.730469 139.15625 C 68.742188 139.140625 68.75 139.121094 68.761719 139.101562 C 68.824219 138.988281 68.886719 138.875 68.953125 138.765625 C 68.957031 138.757812 68.964844 138.742188 68.972656 138.734375 C 69.167969 138.410156 69.378906 138.113281 69.597656 137.847656 C 69.625 137.816406 69.648438 137.785156 69.671875 137.757812 C 69.726562 137.699219 69.78125 137.640625 69.835938 137.582031 C 69.875 137.539062 69.917969 137.496094 69.960938 137.453125 C 70.011719 137.40625 70.058594 137.359375 70.109375 137.316406 C 70.160156 137.269531 70.210938 137.226562 70.265625 137.183594 C 70.308594 137.148438 70.355469 137.109375 70.402344 137.078125 C 70.464844 137.03125 70.527344 136.988281 70.59375 136.949219 C 70.632812 136.921875 70.667969 136.898438 70.707031 136.875 C 70.808594 136.816406 70.910156 136.765625 71.015625 136.71875 C 71.015625 136.71875 71.019531 136.71875 71.019531 136.71875 C 71.132812 136.671875 71.242188 136.632812 71.355469 136.605469 C 71.378906 136.601562 71.402344 136.597656 71.421875 136.589844 C 71.511719 136.574219 71.601562 136.558594 71.691406 136.550781 C 71.726562 136.546875 71.753906 136.546875 71.785156 136.542969 C 71.871094 136.539062 71.957031 136.539062 72.039062 136.550781 C 72.3125 136.570312 72.589844 136.640625 72.867188 136.78125 C 76.09375 138.394531 75.847656 140.566406 75.535156 141.53125 C 75.660156 141.554688 75.78125 141.582031 75.90625 141.609375 C 79.523438 142.308594 84.015625 141.257812 88.652344 139.351562 C 89.476562 139.351562 90.308594 139.300781 91.15625 139.363281 C 91.585938 139.394531 92.015625 139.457031 92.449219 139.503906 L 93.109375 139.566406 L 93.445312 139.59375 C 93.554688 139.609375 93.675781 139.570312 93.910156 139.28125 C 93.933594 138.90625 93.84375 138.789062 93.734375 138.738281 L 93.417969 138.558594 C 93.203125 138.445312 92.984375 138.34375 92.761719 138.257812 C 92.4375 138.128906 92.101562 138.039062 91.765625 137.957031 C 97.910156 134.992188 104.015625 130.882812 108.417969 127.660156 C 111.246094 132.191406 113.835938 137.414062 114.394531 142.007812 C 114.78125 145.203125 122.414062 125.980469 117.671875 118.117188 C 113.691406 111.511719 108.976562 109.035156 105.328125 108.957031 C 93.296875 100.3125 76.511719 107.964844 68.253906 116.84375 C 64.589844 120.554688 60.777344 126.34375 57.636719 135.386719 C 52.054688 151.417969 50.628906 170.171875 50.707031 185.070312 C 55.355469 183.617188 59.390625 182.953125 61.773438 182.65625 C 65.554688 179.941406 69.941406 177.425781 70.484375 172.796875 Z M 110.367188 160.46875 C 110.25 170.460938 111.300781 179.058594 112.78125 186.128906 C 107.21875 184.9375 101.175781 183.925781 95.195312 183.171875 C 95.484375 179.371094 96.320312 175.871094 96.320312 175.871094 C 103.4375 172.832031 107.75 166.773438 110.367188 160.46875 " fill-opacity="1" fill-rule="nonzero"/><path fill="#53c28b" d="M 149.589844 185.683594 C 149.5625 185.640625 149.558594 185.601562 149.515625 185.554688 C 149.46875 185.507812 149.367188 185.457031 149.179688 185.394531 C 148.984375 185.414062 148.875 185.441406 148.8125 185.476562 C 148.761719 185.511719 148.75 185.550781 148.714844 185.589844 C 148.660156 185.664062 148.613281 185.742188 148.585938 185.820312 C 148.527344 185.980469 148.523438 186.144531 148.5 186.304688 C 148.460938 186.628906 148.421875 186.953125 148.398438 187.28125 C 148.363281 187.605469 148.359375 187.933594 148.363281 188.261719 C 148.367188 188.425781 148.375 188.59375 148.386719 188.757812 C 148.390625 188.921875 148.386719 189.085938 148.753906 189.289062 C 149.15625 189.171875 149.1875 189.007812 149.222656 188.851562 C 149.273438 188.691406 149.316406 188.53125 149.355469 188.371094 C 149.429688 188.050781 149.496094 187.730469 149.535156 187.40625 C 149.578125 187.082031 149.609375 186.753906 149.644531 186.429688 C 149.65625 186.269531 149.691406 186.105469 149.664062 185.9375 C 149.65625 185.855469 149.625 185.769531 149.589844 185.683594 Z M 156.84375 186.644531 C 156.820312 186.582031 156.75 186.492188 156.605469 186.359375 C 156.417969 186.292969 156.308594 186.269531 156.238281 186.277344 C 156.179688 186.285156 156.148438 186.316406 156.105469 186.335938 C 156.023438 186.378906 155.949219 186.429688 155.890625 186.488281 C 155.769531 186.605469 155.695312 186.75 155.609375 186.882812 C 155.441406 187.160156 155.269531 187.433594 155.109375 187.714844 C 154.941406 187.988281 154.796875 188.28125 154.664062 188.578125 C 154.597656 188.726562 154.539062 188.878906 154.480469 189.03125 C 154.414062 189.179688 154.339844 189.324219 154.585938 189.664062 C 155 189.730469 155.097656 189.597656 155.199219 189.472656 C 155.308594 189.347656 155.414062 189.226562 155.515625 189.097656 C 155.722656 188.84375 155.914062 188.582031 156.082031 188.308594 C 156.261719 188.039062 156.425781 187.757812 156.59375 187.484375 C 156.671875 187.34375 156.769531 187.210938 156.816406 187.054688 C 156.84375 186.976562 156.851562 186.886719 156.855469 186.792969 C 156.851562 186.742188 156.863281 186.703125 156.84375 186.644531 Z M 154.625 182.328125 L 153.703125 185.160156 C 153.398438 186.105469 153.054688 187.042969 152.714844 187.976562 L 152.183594 189.371094 C 152.011719 189.835938 151.84375 190.304688 151.324219 190.660156 C 151.109375 190.066406 151.246094 189.589844 151.382812 189.113281 L 151.769531 187.667969 C 152.039062 186.714844 152.3125 185.753906 152.617188 184.8125 L 153.527344 181.972656 C 153.683594 181.5 153.832031 181.027344 154.019531 180.566406 C 154.113281 180.335938 154.226562 180.109375 154.347656 179.886719 C 154.480469 179.667969 154.523438 179.421875 154.996094 179.3125 C 155.3125 179.675781 155.203125 179.902344 155.183594 180.15625 C 155.148438 180.40625 155.109375 180.65625 155.050781 180.898438 C 154.933594 181.382812 154.777344 181.855469 154.625 182.328125 " fill-opacity="1" fill-rule="nonzero"/><g clip-path="url(#id7)"><path fill="#227bc0" d="M 136.039062 186.574219 C 135.9375 186.261719 135.828125 185.953125 135.6875 185.65625 C 135.5625 185.355469 135.417969 185.0625 135.28125 184.765625 C 135.207031 184.621094 135.148438 184.464844 135.042969 184.335938 C 134.992188 184.269531 134.921875 184.214844 134.847656 184.15625 C 134.800781 184.132812 134.777344 184.101562 134.714844 184.082031 C 134.648438 184.070312 134.535156 184.078125 134.34375 184.121094 C 134.1875 184.242188 134.109375 184.320312 134.074219 184.382812 C 134.046875 184.4375 134.058594 184.480469 134.046875 184.53125 C 134.042969 184.621094 134.042969 184.714844 134.058594 184.796875 C 134.089844 184.960938 134.171875 185.105469 134.238281 185.253906 C 134.375 185.550781 134.507812 185.847656 134.65625 186.140625 C 134.796875 186.4375 134.960938 186.71875 135.136719 186.996094 C 135.222656 187.136719 135.316406 187.273438 135.414062 187.40625 C 135.503906 187.546875 135.582031 187.691406 136.003906 187.675781 C 136.285156 187.363281 136.226562 187.210938 136.175781 187.050781 C 136.136719 186.890625 136.089844 186.730469 136.039062 186.574219 Z M 141.628906 181.335938 C 141.601562 181.292969 141.589844 181.253906 141.546875 181.210938 C 141.488281 181.171875 141.382812 181.132812 141.191406 181.089844 C 141 181.132812 140.890625 181.171875 140.839844 181.210938 C 140.789062 181.25 140.78125 181.292969 140.75 181.332031 C 140.707031 181.414062 140.667969 181.496094 140.648438 181.574219 C 140.605469 181.734375 140.621094 181.894531 140.613281 182.058594 C 140.609375 182.382812 140.609375 182.703125 140.617188 183.027344 C 140.617188 183.351562 140.644531 183.671875 140.6875 183.996094 C 140.707031 184.15625 140.734375 184.320312 140.761719 184.480469 C 140.785156 184.644531 140.796875 184.804688 141.183594 184.964844 C 141.570312 184.804688 141.585938 184.644531 141.605469 184.480469 C 141.636719 184.320312 141.664062 184.160156 141.683594 184 C 141.726562 183.675781 141.757812 183.351562 141.757812 183.03125 C 141.769531 182.707031 141.765625 182.386719 141.765625 182.0625 C 141.761719 181.898438 141.773438 181.738281 141.734375 181.578125 C 141.714844 181.496094 141.675781 181.414062 141.628906 181.335938 Z M 138.707031 184.496094 C 138.511719 183.519531 138.320312 182.542969 138.089844 181.574219 L 137.40625 178.675781 C 137.289062 178.191406 137.179688 177.707031 137.03125 177.230469 C 136.953125 176.992188 136.859375 176.761719 136.757812 176.53125 C 136.640625 176.304688 136.617188 176.050781 136.15625 175.90625 C 135.8125 176.242188 135.90625 176.476562 135.902344 176.734375 C 135.917969 176.984375 135.933594 177.238281 135.972656 177.484375 C 136.054688 177.972656 136.171875 178.457031 136.285156 178.941406 L 136.976562 181.839844 C 137.210938 182.808594 137.472656 183.765625 137.738281 184.722656 L 138.160156 186.15625 C 138.289062 186.636719 138.421875 187.117188 138.910156 187.507812 C 139.171875 186.9375 139.070312 186.449219 138.976562 185.960938 Z M 159.652344 202.117188 C 159.816406 202.085938 159.976562 202.046875 160.136719 202.003906 C 160.453125 201.917969 160.765625 201.820312 161.070312 201.695312 C 161.375 201.578125 161.675781 201.449219 161.976562 201.324219 C 162.125 201.257812 162.285156 201.207031 162.417969 201.109375 C 162.488281 201.058594 162.546875 200.992188 162.605469 200.917969 C 162.632812 200.875 162.664062 200.851562 162.683594 200.792969 C 162.703125 200.726562 162.699219 200.613281 162.664062 200.417969 C 162.550781 200.257812 162.472656 200.171875 162.414062 200.136719 C 162.359375 200.109375 162.316406 200.117188 162.269531 200.105469 C 162.175781 200.097656 162.085938 200.089844 162.003906 200.105469 C 161.835938 200.128906 161.691406 200.203125 161.535156 200.261719 C 161.234375 200.386719 160.929688 200.503906 160.632812 200.640625 C 160.332031 200.765625 160.039062 200.917969 159.753906 201.082031 C 159.609375 201.164062 159.46875 201.25 159.332031 201.339844 C 159.1875 201.421875 159.042969 201.496094 159.039062 201.917969 C 159.339844 202.210938 159.496094 202.160156 159.652344 202.117188 Z M 165.164062 206.945312 C 165.085938 206.894531 165.003906 206.851562 164.925781 206.828125 C 164.765625 206.78125 164.605469 206.789062 164.441406 206.777344 C 164.121094 206.757812 163.796875 206.738281 163.472656 206.734375 C 163.152344 206.71875 162.828125 206.734375 162.503906 206.761719 C 162.339844 206.773438 162.179688 206.792969 162.015625 206.816406 C 161.855469 206.828125 161.691406 206.832031 161.511719 207.214844 C 161.65625 207.605469 161.816406 207.628906 161.976562 207.65625 C 162.136719 207.695312 162.296875 207.726562 162.457031 207.757812 C 162.777344 207.8125 163.097656 207.859375 163.421875 207.871094 C 163.742188 207.898438 164.066406 207.910156 164.390625 207.925781 C 164.550781 207.925781 164.710938 207.949219 164.875 207.914062 C 164.957031 207.898438 165.039062 207.863281 165.121094 207.824219 C 165.164062 207.796875 165.203125 207.789062 165.246094 207.742188 C 165.289062 207.691406 165.332031 207.585938 165.382812 207.394531 C 165.351562 207.203125 165.316406 207.09375 165.28125 207.035156 C 165.242188 206.988281 165.203125 206.976562 165.164062 206.945312 Z M 169.976562 202.308594 C 169.722656 202.3125 169.472656 202.316406 169.222656 202.347656 C 168.730469 202.402344 168.242188 202.5 167.753906 202.59375 L 164.824219 203.152344 C 163.847656 203.339844 162.878906 203.5625 161.910156 203.78125 L 160.460938 204.136719 C 159.972656 204.246094 159.488281 204.355469 159.074219 204.828125 C 159.632812 205.113281 160.125 205.039062 160.617188 204.960938 L 162.09375 204.761719 C 163.078125 204.609375 164.0625 204.460938 165.039062 204.273438 L 167.96875 203.722656 C 168.457031 203.628906 168.945312 203.539062 169.425781 203.410156 C 169.667969 203.347656 169.90625 203.261719 170.140625 203.171875 C 170.371094 203.066406 170.621094 203.054688 170.789062 202.601562 C 170.46875 202.238281 170.230469 202.324219 169.976562 202.308594 Z M 30.957031 241.941406 C 30.609375 241.277344 30.261719 240.613281 29.882812 239.964844 L 28.75 238.023438 C 28.558594 237.699219 28.371094 237.371094 28.152344 237.066406 C 28.039062 236.914062 27.910156 236.773438 27.777344 236.636719 C 27.628906 236.503906 27.566406 236.324219 27.113281 236.371094 C 26.851562 236.742188 26.976562 236.886719 27.019531 237.078125 C 27.074219 237.265625 27.136719 237.445312 27.214844 237.617188 C 27.371094 237.957031 27.566406 238.28125 27.753906 238.605469 L 28.894531 240.542969 C 29.277344 241.191406 29.6875 241.816406 30.097656 242.445312 L 30.734375 243.375 C 30.9375 243.691406 31.140625 244.007812 31.664062 244.136719 C 31.808594 243.617188 31.632812 243.285156 31.457031 242.953125 Z M 30.4375 201.835938 C 30.027344 202.390625 29.660156 202.96875 29.296875 203.554688 C 28.59375 204.738281 27.972656 205.964844 27.402344 207.214844 C 26.261719 209.71875 25.34375 212.328125 24.707031 215.015625 C 24.074219 217.703125 23.785156 220.484375 23.945312 223.253906 C 24.011719 224.636719 24.242188 226.007812 24.546875 227.359375 C 24.847656 228.707031 25.316406 230.035156 26.175781 231.152344 C 26.03125 229.746094 25.621094 228.496094 25.367188 227.179688 C 25.125 225.867188 24.949219 224.542969 24.9375 223.207031 C 24.851562 220.542969 25.210938 217.878906 25.8125 215.273438 C 26.433594 212.671875 27.332031 210.132812 28.449219 207.691406 C 29.007812 206.472656 29.617188 205.277344 30.242188 204.085938 L 31.175781 202.296875 C 31.488281 201.695312 31.878906 201.15625 31.933594 200.367188 C 31.195312 200.679688 30.847656 201.285156 30.4375 201.835938 Z M 62.679688 127.558594 C 62.398438 128.046875 62.140625 128.546875 61.886719 129.050781 C 61.390625 130.0625 60.945312 131.097656 60.503906 132.136719 C 59.625 134.210938 58.800781 136.304688 58.019531 138.425781 C 57.230469 140.535156 56.5625 142.703125 56 144.894531 C 55.714844 145.992188 55.503906 147.109375 55.300781 148.226562 C 55.230469 148.792969 55.144531 149.359375 55.117188 149.929688 C 55.128906 150.503906 55.195312 151.085938 55.359375 151.648438 C 55.59375 151.085938 55.707031 150.546875 55.808594 150.007812 C 55.949219 149.464844 56.03125 148.921875 56.125 148.378906 C 56.375 147.296875 56.628906 146.21875 56.960938 145.152344 C 57.582031 143.015625 58.3125 140.910156 59.085938 138.8125 C 59.859375 136.71875 60.683594 134.640625 61.5625 132.585938 C 62.003906 131.554688 62.453125 130.53125 62.875 129.492188 C 63.078125 128.972656 63.285156 128.453125 63.472656 127.921875 C 63.65625 127.390625 63.925781 126.902344 63.792969 126.214844 C 63.175781 126.542969 62.96875 127.070312 62.679688 127.558594 Z M 73.394531 114.933594 C 73.277344 115 73.164062 115.070312 73.054688 115.144531 C 72.835938 115.292969 72.625 115.449219 72.4375 115.628906 C 72.242188 115.800781 72.054688 115.980469 71.863281 116.160156 C 71.773438 116.25 71.667969 116.332031 71.601562 116.453125 C 71.566406 116.507812 71.550781 116.582031 71.53125 116.660156 C 71.527344 116.703125 71.511719 116.734375 71.519531 116.789062 C 71.535156 116.851562 71.582031 116.953125 71.691406 117.113281 C 71.847656 117.230469 71.941406 117.285156 72.003906 117.304688 C 72.058594 117.316406 72.089844 117.300781 72.132812 117.300781 C 72.210938 117.289062 72.285156 117.273438 72.347656 117.242188 C 72.46875 117.183594 72.558594 117.082031 72.652344 117 C 72.84375 116.820312 73.035156 116.644531 73.21875 116.457031 C 73.410156 116.28125 73.578125 116.082031 73.738281 115.871094 C 73.820312 115.765625 73.898438 115.65625 73.972656 115.546875 C 74.050781 115.441406 74.136719 115.34375 73.964844 114.972656 C 73.605469 114.78125 73.5 114.859375 73.394531 114.933594 Z M 94.757812 107.726562 C 95.722656 107.820312 96.703125 107.941406 97.59375 108.480469 C 96.585938 108.703125 95.648438 108.621094 94.691406 108.5625 C 93.742188 108.519531 92.789062 108.503906 91.835938 108.53125 C 89.9375 108.566406 88.046875 108.738281 86.195312 109.085938 C 84.34375 109.425781 82.539062 109.992188 80.902344 110.859375 C 80.085938 111.300781 79.316406 111.808594 78.59375 112.378906 C 78.242188 112.667969 77.871094 112.949219 77.535156 113.269531 C 77.167969 113.566406 76.941406 113.960938 76.308594 114.101562 C 76.265625 113.480469 76.585938 113.078125 76.890625 112.6875 C 77.175781 112.265625 77.535156 111.914062 77.890625 111.554688 C 78.628906 110.871094 79.480469 110.320312 80.359375 109.84375 C 82.132812 108.910156 84.050781 108.324219 85.984375 107.96875 C 87.921875 107.597656 89.890625 107.5 91.839844 107.535156 C 92.8125 107.5625 93.789062 107.628906 94.757812 107.726562 " fill-opacity="1" fill-rule="nonzero"/></g></svg>